<svg width="1009" height="531" viewBox="0 0 1009 531" fill="none" xmlns="http://www.w3.org/2000/svg">
<rect width="1009" height="531" fill="#71368D" fill-opacity="0.56"/>
<g style="mix-blend-mode:screen">
<g filter="url(#filter0_i)">
<path d="M761.974 355.813C757.523 361.433 756.214 370.04 758.044 381.633C760.125 392.839 764.501 403.884 771.174 414.767C778.097 425.264 786.972 434.008 797.802 440.999C808.631 447.99 820.728 450.047 834.094 447.168C842.686 445.318 849.559 441.673 854.715 436.234C860.188 430.726 864.183 424.538 866.7 417.67C869.466 410.414 870.981 402.762 871.246 394.713C871.51 386.665 870.855 378.981 869.278 371.662C867.017 361.16 863.063 352.855 857.419 346.745C852.092 340.566 845.539 335.651 837.76 331.998C830.23 327.959 821.793 325.115 812.447 323.465C803.351 321.428 794.095 319.426 784.681 317.457C776.04 315.988 765.636 314.067 753.47 311.692C741.236 308.999 729.17 304.772 717.274 299.009C705.309 292.928 694.399 284.789 684.544 274.591C674.939 264.006 668.251 249.963 664.482 232.46C662.015 221.004 662.536 208.738 666.047 195.662C669.557 182.585 675.853 170.074 684.935 158.129C693.948 145.865 705.6 135.031 719.891 125.626C734.5 116.153 751.67 109.292 771.4 105.043C790.811 100.862 806.94 99.2201 819.787 100.116C832.633 101.012 843.014 103.605 850.931 107.894C858.779 111.864 864.536 116.951 868.203 123.154C872.119 128.97 874.694 134.742 875.928 140.47C877.162 146.198 876.679 152.462 874.481 159.263C872.214 165.745 869.242 172.045 865.565 178.165C861.82 183.966 857.813 189.325 853.544 194.24C849.206 198.837 845.583 202.115 842.675 204.073C843.375 199.593 843.733 193.523 843.747 185.861C843.762 178.199 841.709 170.982 837.587 164.212C833.783 157.372 826.843 152.207 816.768 148.716C807.01 145.157 792.426 145.468 773.014 149.648C761.877 152.047 751.434 156.127 741.686 161.889C731.939 167.652 723.545 174.288 716.505 181.798C709.714 188.921 704.686 196.497 701.421 204.526C698.155 212.555 697.31 220.229 698.887 227.548C700.394 234.549 704.186 240.559 710.262 245.577C716.587 250.208 724.469 254.338 733.908 257.966C743.597 261.207 754.399 264.208 766.315 266.97C778.55 269.663 791.261 272.253 804.45 274.74C817.321 277.296 830.136 280.363 842.894 283.942C855.584 287.203 867.206 291.692 877.761 297.411C888.635 303.061 897.804 310.076 905.27 318.458C912.736 326.84 917.805 337.236 920.478 349.647C923.357 363.012 923.587 376.448 921.168 389.956C918.999 403.076 914.294 415.244 907.053 426.461C900.13 437.608 890.728 447.292 878.846 455.511C867.032 464.049 852.851 470.1 836.304 473.664C821.665 476.817 807.309 477.411 793.233 475.448C779.158 473.484 766.366 469.746 754.856 464.234C743.664 458.652 734.211 451.864 726.495 443.869C718.78 435.874 713.962 427.422 712.043 418.512C709.987 408.965 710.308 400.405 713.006 392.831C716.022 385.189 720.301 378.773 725.843 373.584C731.316 368.076 737.223 363.807 743.563 360.777C750.221 357.678 756.358 356.023 761.974 355.813Z" fill="#625564" fill-opacity="0.99"/>
</g>
<path d="M761.974 355.813L762.758 356.433L764.105 354.732L761.936 354.813L761.974 355.813ZM758.044 381.633L757.057 381.789L757.059 381.802L757.061 381.815L758.044 381.633ZM771.174 414.767L770.322 415.29L770.33 415.304L770.339 415.318L771.174 414.767ZM854.715 436.234L854.005 435.529L853.997 435.538L853.989 435.546L854.715 436.234ZM866.7 417.67L865.765 417.313L865.761 417.326L866.7 417.67ZM857.419 346.745L856.661 347.398L856.673 347.411L856.684 347.423L857.419 346.745ZM837.76 331.998L837.287 332.88L837.311 332.892L837.335 332.904L837.76 331.998ZM812.447 323.465L812.228 324.441L812.25 324.446L812.273 324.45L812.447 323.465ZM784.681 317.457L784.885 316.478L784.867 316.475L784.848 316.471L784.681 317.457ZM753.47 311.692L753.255 312.669L753.267 312.671L753.279 312.674L753.47 311.692ZM717.274 299.009L716.821 299.901L716.829 299.905L716.838 299.909L717.274 299.009ZM684.544 274.591L683.803 275.263L683.814 275.275L683.825 275.286L684.544 274.591ZM684.935 158.129L685.731 158.734L685.736 158.727L685.741 158.721L684.935 158.129ZM719.891 125.626L719.347 124.787L719.341 124.791L719.891 125.626ZM850.931 107.894L850.454 108.773L850.467 108.78L850.479 108.786L850.931 107.894ZM868.203 123.154L867.342 123.663L867.357 123.688L867.373 123.713L868.203 123.154ZM874.481 159.263L875.425 159.593L875.429 159.582L875.432 159.57L874.481 159.263ZM865.565 178.165L866.406 178.707L866.414 178.694L866.423 178.68L865.565 178.165ZM853.544 194.24L854.271 194.926L854.285 194.911L854.299 194.896L853.544 194.24ZM842.675 204.073L841.687 203.918L841.333 206.182L843.234 204.902L842.675 204.073ZM837.587 164.212L836.713 164.698L836.722 164.715L836.732 164.732L837.587 164.212ZM816.768 148.716L816.425 149.656L816.433 149.658L816.44 149.661L816.768 148.716ZM716.505 181.798L717.229 182.488L717.234 182.482L716.505 181.798ZM701.421 204.526L700.494 204.149L701.421 204.526ZM710.262 245.577L709.625 246.348L709.647 246.366L709.671 246.384L710.262 245.577ZM733.908 257.966L733.549 258.899L733.57 258.907L733.591 258.914L733.908 257.966ZM766.315 266.97L766.089 267.944L766.1 267.946L766.315 266.97ZM804.45 274.74L804.645 273.759L804.636 273.757L804.45 274.74ZM842.894 283.942L842.624 284.905L842.635 284.908L842.645 284.911L842.894 283.942ZM877.761 297.411L877.285 298.29L877.293 298.294L877.3 298.298L877.761 297.411ZM921.168 389.956L920.183 389.779L920.181 389.793L921.168 389.956ZM907.053 426.461L906.213 425.918L906.208 425.925L906.203 425.933L907.053 426.461ZM878.846 455.511L878.277 454.689L878.268 454.695L878.26 454.701L878.846 455.511ZM754.856 464.234L754.41 465.128L754.417 465.132L754.424 465.135L754.856 464.234ZM713.006 392.831L712.076 392.464L712.069 392.48L712.064 392.495L713.006 392.831ZM725.843 373.584L726.526 374.314L726.539 374.301L726.552 374.288L725.843 373.584ZM743.563 360.777L743.141 359.87L743.132 359.874L743.563 360.777ZM761.19 355.192C756.482 361.137 755.209 370.089 757.057 381.789L759.032 381.477C757.218 369.99 758.564 361.729 762.758 356.433L761.19 355.192ZM757.061 381.815C759.167 393.156 763.593 404.315 770.322 415.29L772.027 414.245C765.41 403.453 761.083 392.523 759.028 381.45L757.061 381.815ZM770.339 415.318C777.34 425.933 786.317 434.775 797.259 441.839L798.344 440.159C787.628 433.241 778.853 424.595 772.009 414.217L770.339 415.318ZM797.259 441.839C808.326 448.984 820.697 451.076 834.304 448.146L833.883 446.191C820.76 449.017 808.936 446.997 798.344 440.159L797.259 441.839ZM834.304 448.146C843.058 446.261 850.124 442.531 855.441 436.922L853.989 435.546C848.995 440.815 842.313 444.375 833.883 446.191L834.304 448.146ZM855.424 436.939C860.993 431.335 865.07 425.026 867.639 418.014L865.761 417.326C863.297 424.051 859.384 430.117 854.005 435.529L855.424 436.939ZM867.634 418.026C870.441 410.663 871.977 402.901 872.245 394.746L870.246 394.681C869.985 402.623 868.491 410.165 865.765 417.313L867.634 418.026ZM872.245 394.746C872.512 386.622 871.851 378.856 870.256 371.451L868.301 371.872C869.858 379.106 870.508 386.708 870.246 394.681L872.245 394.746ZM870.256 371.451C867.967 360.825 863.95 352.341 858.153 346.066L856.684 347.423C862.177 353.369 866.066 361.496 868.301 371.872L870.256 371.451ZM858.176 346.092C852.753 339.801 846.085 334.802 838.185 331.093L837.335 332.904C844.994 336.5 851.432 341.331 856.661 347.398L858.176 346.092ZM838.233 331.117C830.6 327.023 822.06 324.146 812.621 322.48L812.273 324.45C821.526 326.083 829.861 328.896 837.287 332.88L838.233 331.117ZM812.665 322.489C803.564 320.451 794.304 318.448 784.885 316.478L784.476 318.436C793.886 320.403 803.137 322.405 812.228 324.441L812.665 322.489ZM784.848 316.471C776.218 315.004 765.823 313.084 753.662 310.711L753.279 312.674C765.45 315.049 775.862 316.972 784.513 318.443L784.848 316.471ZM753.685 310.715C741.531 308.04 729.54 303.839 717.71 298.109L716.838 299.909C728.801 305.704 740.941 309.958 753.255 312.669L753.685 310.715ZM717.727 298.118C705.866 292.09 695.045 284.019 685.263 273.896L683.825 275.286C693.752 285.559 704.751 293.767 716.821 299.901L717.727 298.118ZM685.284 273.919C675.824 263.494 669.201 249.623 665.459 232.25L663.504 232.671C667.301 250.302 674.053 264.519 683.803 275.263L685.284 273.919ZM665.459 232.25C663.03 220.972 663.537 208.868 667.012 195.921L665.081 195.402C661.536 208.608 660.999 221.037 663.504 232.671L665.459 232.25ZM667.012 195.921C670.486 182.982 676.719 170.587 685.731 158.734L684.139 157.523C674.987 169.561 668.628 182.188 665.081 195.402L667.012 195.921ZM685.741 158.721C694.676 146.564 706.237 135.809 720.441 126.462L719.341 124.791C704.964 134.253 693.221 145.166 684.129 157.536L685.741 158.721ZM720.435 126.465C734.928 117.068 751.98 110.248 771.61 106.021L771.189 104.065C751.359 108.336 734.073 115.239 719.347 124.787L720.435 126.465ZM771.61 106.021C790.974 101.85 807.001 100.227 819.717 101.114L819.856 99.1187C806.88 98.2135 790.649 99.8745 771.189 104.065L771.61 106.021ZM819.717 101.114C832.478 102.004 842.706 104.575 850.454 108.773L851.407 107.014C843.323 102.635 832.788 100.021 819.856 99.1187L819.717 101.114ZM850.479 108.786C858.195 112.689 863.792 117.657 867.342 123.663L869.064 122.645C865.28 116.245 859.363 111.039 851.382 107.001L850.479 108.786ZM867.373 123.713C871.232 129.443 873.748 135.099 874.95 140.681L876.906 140.26C875.64 134.386 873.006 128.497 869.032 122.595L867.373 123.713ZM874.95 140.681C876.14 146.203 875.685 152.286 873.529 158.955L875.432 159.57C877.673 152.639 878.184 146.194 876.906 140.26L874.95 140.681ZM873.537 158.933C871.294 165.347 868.351 171.586 864.708 177.65L866.423 178.68C870.133 172.504 873.135 166.142 875.425 159.593L873.537 158.933ZM864.725 177.623C861.004 183.387 857.025 188.707 852.789 193.584L854.299 194.896C858.601 189.943 862.636 184.546 866.406 178.707L864.725 177.623ZM852.816 193.554C848.496 198.132 844.933 201.347 842.116 203.243L843.234 204.902C846.233 202.882 849.916 199.542 854.271 194.926L852.816 193.554ZM843.663 204.227C844.375 199.675 844.733 193.546 844.747 185.863L842.747 185.859C842.733 193.499 842.376 199.512 841.687 203.918L843.663 204.227ZM844.747 185.863C844.763 178.01 842.655 170.614 838.441 163.692L836.732 164.732C840.762 171.351 842.762 178.388 842.747 185.859L844.747 185.863ZM838.46 163.726C834.5 156.604 827.318 151.313 817.095 147.771L816.44 149.661C826.368 153.101 833.066 158.141 836.713 164.698L838.46 163.726ZM817.11 147.777C807.077 144.117 792.259 144.481 772.804 148.671L773.225 150.626C792.593 146.454 806.944 146.197 816.425 149.656L817.11 147.777ZM772.804 148.671C761.562 151.092 751.018 155.211 741.177 161.029L742.195 162.75C751.85 157.043 762.191 153.002 773.225 150.626L772.804 148.671ZM741.177 161.029C731.356 166.834 722.886 173.528 715.775 181.114L717.234 182.482C724.204 175.047 732.521 168.469 742.195 162.75L741.177 161.029ZM715.781 181.108C708.916 188.309 703.813 195.989 700.494 204.149L702.347 204.903C705.559 197.004 710.513 189.532 717.229 182.488L715.781 181.108ZM700.494 204.149C697.165 212.334 696.284 220.213 697.909 227.759L699.864 227.338C698.337 220.244 699.145 212.776 702.347 204.903L700.494 204.149ZM697.909 227.759C699.469 235.002 703.394 241.202 709.625 246.348L710.898 244.806C704.978 239.915 701.32 234.096 699.864 227.338L697.909 227.759ZM709.671 246.384C716.085 251.08 724.05 255.248 733.549 258.899L734.267 257.032C724.888 253.428 717.089 249.337 710.852 244.77L709.671 246.384ZM733.591 258.914C743.314 262.167 754.148 265.177 766.089 267.944L766.541 265.995C754.65 263.24 743.879 260.247 734.225 257.018L733.591 258.914ZM766.1 267.946C778.345 270.641 791.067 273.233 804.265 275.722L804.636 273.757C791.456 271.272 778.754 268.684 766.53 265.993L766.1 267.946ZM804.256 275.721C817.101 278.271 829.89 281.333 842.624 284.905L843.164 282.979C830.381 279.393 817.542 276.32 804.645 273.759L804.256 275.721ZM842.645 284.911C855.263 288.153 866.808 292.614 877.285 298.29L878.238 296.531C867.604 290.771 855.905 286.253 843.143 282.973L842.645 284.911ZM877.3 298.298C888.076 303.897 897.146 310.84 904.523 319.123L906.017 317.793C898.463 309.312 889.194 302.224 878.222 296.523L877.3 298.298ZM904.523 319.123C911.86 327.36 916.859 337.593 919.501 349.857L921.456 349.436C918.751 336.879 913.612 326.32 906.017 317.793L904.523 319.123ZM919.501 349.857C922.352 363.095 922.579 376.4 920.184 389.779L922.152 390.132C924.594 376.497 924.362 362.929 921.456 349.436L919.501 349.857ZM920.181 389.793C918.035 402.777 913.38 414.817 906.213 425.918L907.893 427.003C915.208 415.672 919.963 403.375 922.154 390.119L920.181 389.793ZM906.203 425.933C899.36 436.953 890.057 446.539 878.277 454.689L879.415 456.334C891.398 448.044 900.9 438.263 907.902 426.988L906.203 425.933ZM878.26 454.701C866.575 463.146 852.527 469.147 836.093 472.687L836.514 474.642C853.176 471.053 867.489 464.953 879.431 456.322L878.26 454.701ZM836.093 472.687C821.563 475.816 807.325 476.404 793.372 474.458L793.095 476.438C807.293 478.419 821.768 477.818 836.514 474.642L836.093 472.687ZM793.372 474.458C779.387 472.507 766.695 468.795 755.288 463.332L754.424 465.135C766.036 470.697 778.93 474.462 793.095 476.438L793.372 474.458ZM755.302 463.339C744.2 457.802 734.842 451.078 727.215 443.175L725.776 444.564C733.579 452.65 743.129 459.503 754.41 465.128L755.302 463.339ZM727.215 443.175C719.6 435.285 714.893 426.993 713.021 418.301L711.066 418.722C713.032 427.851 717.959 436.464 725.776 444.564L727.215 443.175ZM713.021 418.301C710.996 408.897 711.325 400.531 713.948 393.167L712.064 392.495C709.291 400.279 708.979 409.033 711.066 418.722L713.021 418.301ZM713.936 393.198C716.902 385.682 721.101 379.394 726.526 374.314L725.159 372.854C719.5 378.152 715.141 384.695 712.076 392.464L713.936 393.198ZM726.552 374.288C731.953 368.854 737.768 364.655 743.994 361.679L743.132 359.874C736.678 362.959 730.679 367.298 725.133 372.879L726.552 374.288ZM743.985 361.683C750.558 358.624 756.563 357.016 762.011 356.812L761.936 354.813C756.154 355.03 749.885 356.731 743.141 359.87L743.985 361.683Z" fill="#625564"/>
</g>
<defs>
<filter id="filter0_i" x="661.954" y="98.879" width="261.87" height="382.699" filterUnits="userSpaceOnUse" color-interpolation-filters="sRGB">
<feFlood flood-opacity="0" result="BackgroundImageFix"/>
<feBlend mode="normal" in="SourceGraphic" in2="BackgroundImageFix" result="shape"/>
<feColorMatrix in="SourceAlpha" type="matrix" values="0 0 0 0 0 0 0 0 0 0 0 0 0 0 0 0 0 0 127 0" result="hardAlpha"/>
<feOffset dy="4"/>
<feGaussianBlur stdDeviation="2"/>
<feComposite in2="hardAlpha" operator="arithmetic" k2="-1" k3="1"/>
<feColorMatrix type="matrix" values="0 0 0 0 0 0 0 0 0 0 0 0 0 0 0 0 0 0 0.25 0"/>
<feBlend mode="normal" in2="shape" result="effect1_innerShadow"/>
</filter>
</defs>
</svg>
