<svg width="1752" height="892" viewBox="0 0 1752 892" fill="none" xmlns="http://www.w3.org/2000/svg">
<rect width="1752" height="892" fill="#71368D" fill-opacity="0.56"/>
<g style="mix-blend-mode:screen">
<g filter="url(#filter0_i)">
<path d="M956.215 451.23C949.985 459.098 948.151 471.148 950.715 487.378C953.627 503.067 959.755 518.53 969.096 533.766C978.788 548.462 991.214 560.703 1006.37 570.491C1021.54 580.279 1038.47 583.158 1057.18 579.128C1069.21 576.537 1078.84 571.435 1086.05 563.82C1093.72 556.109 1099.31 547.446 1102.83 537.83C1106.7 527.672 1108.83 516.959 1109.2 505.691C1109.57 494.423 1108.65 483.666 1106.44 473.419C1103.28 458.717 1097.74 447.089 1089.84 438.535C1082.38 429.885 1073.21 423.003 1062.32 417.89C1051.78 412.235 1039.96 408.253 1026.88 405.943C1014.14 403.091 1001.19 400.288 988.005 397.532C975.908 395.476 961.343 392.786 944.311 389.461C927.183 385.691 910.291 379.772 893.636 371.705C876.885 363.192 861.611 351.797 847.814 337.52C834.366 322.701 825.004 303.04 819.727 278.537C816.273 262.498 817.003 245.325 821.918 227.018C826.832 208.711 835.647 191.196 848.361 174.472C860.98 157.303 877.293 142.135 897.3 128.969C917.753 115.707 941.79 106.101 969.412 100.153C996.588 94.2996 1019.17 92.0004 1037.15 93.255C1055.14 94.5096 1069.67 98.139 1080.76 104.143C1091.74 109.702 1099.8 116.824 1104.94 125.508C1110.42 133.65 1114.02 141.731 1115.75 149.751C1117.48 157.77 1116.8 166.54 1113.73 176.06C1110.55 185.135 1106.39 193.956 1101.24 202.523C1096 210.645 1090.39 218.147 1084.41 225.028C1078.34 231.464 1073.27 236.053 1069.2 238.794C1070.18 232.523 1070.68 224.024 1070.7 213.297C1070.72 202.571 1067.84 192.468 1062.07 182.988C1056.75 173.413 1047.03 166.182 1032.93 161.295C1019.27 156.312 998.849 156.747 971.673 162.6C956.08 165.958 941.46 171.671 927.813 179.738C914.167 187.804 902.415 197.095 892.559 207.609C883.052 217.581 876.013 228.188 871.441 239.428C866.869 250.669 865.687 261.413 867.894 271.659C870.005 281.461 875.313 289.874 883.819 296.9C892.674 303.384 903.709 309.165 916.923 314.244C930.488 318.782 945.611 322.984 962.294 326.85C979.422 330.62 997.218 334.246 1015.68 337.728C1033.7 341.306 1051.64 345.6 1069.5 350.611C1087.27 355.176 1103.54 361.461 1118.32 369.467C1133.54 377.377 1146.38 387.199 1156.83 398.933C1167.28 410.668 1174.38 425.222 1178.12 442.597C1182.15 461.309 1182.47 480.12 1179.09 499.03C1176.05 517.399 1169.46 534.435 1159.33 550.137C1149.63 565.743 1136.47 579.301 1119.84 590.808C1103.3 602.761 1083.44 611.233 1060.28 616.222C1039.78 620.636 1019.68 621.468 999.979 618.719C980.274 615.971 962.364 610.737 946.251 603.019C930.582 595.205 917.347 585.702 906.546 574.509C895.744 563.316 889 551.483 886.313 539.008C883.435 525.643 883.884 513.659 887.661 503.056C891.883 492.357 897.873 483.374 905.632 476.109C913.295 468.399 921.565 462.422 930.441 458.179C939.762 453.841 948.354 451.524 956.215 451.23Z" fill="#625564" fill-opacity="0.99"/>
</g>
<path d="M956.215 451.23L956.999 451.851L958.347 450.149L956.178 450.231L956.215 451.23ZM950.715 487.378L949.727 487.534L949.729 487.547L949.731 487.561L950.715 487.378ZM969.096 533.766L968.244 534.289L968.252 534.303L968.262 534.317L969.096 533.766ZM1086.05 563.82L1085.34 563.115L1085.34 563.123L1085.33 563.132L1086.05 563.82ZM1102.83 537.83L1101.9 537.473L1101.89 537.486L1102.83 537.83ZM1089.84 438.535L1089.08 439.188L1089.09 439.201L1089.1 439.214L1089.84 438.535ZM1062.32 417.89L1061.84 418.771L1061.87 418.784L1061.89 418.795L1062.32 417.89ZM1026.88 405.943L1026.66 406.919L1026.68 406.924L1026.7 406.928L1026.88 405.943ZM988.005 397.532L988.21 396.554L988.192 396.55L988.173 396.547L988.005 397.532ZM944.311 389.461L944.096 390.438L944.108 390.44L944.119 390.443L944.311 389.461ZM893.636 371.705L893.183 372.596L893.191 372.601L893.2 372.605L893.636 371.705ZM847.814 337.52L847.073 338.192L847.084 338.203L847.095 338.215L847.814 337.52ZM848.361 174.472L849.157 175.078L849.162 175.071L849.167 175.065L848.361 174.472ZM897.3 128.969L896.756 128.13L896.75 128.134L897.3 128.969ZM1080.76 104.143L1080.28 105.023L1080.29 105.029L1080.3 105.036L1080.76 104.143ZM1104.94 125.508L1104.08 126.017L1104.09 126.042L1104.11 126.066L1104.94 125.508ZM1113.73 176.06L1114.67 176.39L1114.67 176.379L1114.68 176.367L1113.73 176.06ZM1101.24 202.523L1102.08 203.066L1102.09 203.052L1102.1 203.038L1101.24 202.523ZM1084.41 225.028L1085.14 225.714L1085.16 225.699L1085.17 225.684L1084.41 225.028ZM1069.2 238.794L1068.21 238.64L1067.86 240.903L1069.76 239.624L1069.2 238.794ZM1062.07 182.988L1061.2 183.475L1061.21 183.492L1061.22 183.509L1062.07 182.988ZM1032.93 161.295L1032.58 162.234L1032.59 162.237L1032.6 162.24L1032.93 161.295ZM892.559 207.609L893.283 208.299L893.289 208.293L892.559 207.609ZM871.441 239.428L870.515 239.052L871.441 239.428ZM883.819 296.9L883.182 297.671L883.204 297.689L883.228 297.707L883.819 296.9ZM916.923 314.244L916.565 315.178L916.585 315.186L916.606 315.193L916.923 314.244ZM962.294 326.85L962.068 327.824L962.079 327.826L962.294 326.85ZM1015.68 337.728L1015.88 336.747L1015.87 336.745L1015.68 337.728ZM1069.5 350.611L1069.23 351.574L1069.24 351.577L1069.26 351.58L1069.5 350.611ZM1118.32 369.467L1117.84 370.346L1117.85 370.351L1117.86 370.355L1118.32 369.467ZM1179.09 499.03L1178.1 498.854L1178.1 498.867L1179.09 499.03ZM1159.33 550.137L1158.49 549.595L1158.48 549.602L1158.48 549.609L1159.33 550.137ZM1119.84 590.808L1119.27 589.986L1119.26 589.992L1119.25 589.998L1119.84 590.808ZM946.251 603.019L945.804 603.914L945.812 603.918L945.819 603.921L946.251 603.019ZM887.661 503.056L886.73 502.689L886.724 502.704L886.719 502.72L887.661 503.056ZM905.632 476.109L906.316 476.839L906.329 476.827L906.342 476.814L905.632 476.109ZM930.441 458.179L930.019 457.273L930.01 457.277L930.441 458.179ZM955.432 450.609C948.944 458.802 947.147 471.197 949.727 487.534L951.702 487.222C949.156 471.098 951.026 459.394 956.999 451.851L955.432 450.609ZM949.731 487.561C952.669 503.383 958.846 518.96 968.244 534.289L969.949 533.244C960.663 518.099 954.586 502.75 951.698 487.195L949.731 487.561ZM968.262 534.317C978.031 549.131 990.558 561.47 1005.83 571.331L1006.92 569.651C991.87 559.936 979.544 547.792 969.931 533.216L968.262 534.317ZM1005.83 571.331C1021.23 581.272 1038.44 584.187 1057.39 580.105L1056.97 578.15C1038.5 582.128 1021.84 579.285 1006.92 569.651L1005.83 571.331ZM1057.39 580.105C1069.59 577.48 1079.4 572.293 1086.78 564.508L1085.33 563.132C1078.27 570.576 1068.84 575.595 1056.97 578.15L1057.39 580.105ZM1086.76 564.525C1094.52 556.718 1100.2 547.933 1103.77 538.174L1101.89 537.486C1098.42 546.958 1092.91 555.5 1085.34 563.115L1086.76 564.525ZM1103.77 538.186C1107.68 527.921 1109.82 517.099 1110.2 505.724L1108.2 505.658C1107.83 516.82 1105.73 527.423 1101.9 537.473L1103.77 538.186ZM1110.2 505.724C1110.57 494.38 1109.64 483.541 1107.42 473.208L1105.46 473.629C1107.65 483.79 1108.57 494.466 1108.2 505.658L1110.2 505.724ZM1107.42 473.208C1104.23 458.381 1098.63 446.575 1090.57 437.856L1089.1 439.214C1096.85 447.603 1102.32 459.052 1105.46 473.629L1107.42 473.208ZM1090.6 437.882C1083.04 429.12 1073.75 422.155 1062.74 416.985L1061.89 418.795C1072.66 423.852 1081.72 430.65 1089.08 439.188L1090.6 437.882ZM1062.79 417.009C1052.14 411.299 1040.23 407.285 1027.05 404.958L1026.7 406.928C1039.7 409.221 1051.41 413.172 1061.84 418.771L1062.79 417.009ZM1027.1 404.967C1014.36 402.115 1001.39 399.31 988.21 396.554L987.801 398.511C1000.98 401.266 1013.93 404.068 1026.66 406.919L1027.1 404.967ZM988.173 396.547C976.086 394.492 961.53 391.803 944.503 388.48L944.119 390.443C961.157 393.768 975.73 396.46 987.838 398.518L988.173 396.547ZM944.526 388.484C927.478 384.732 910.661 378.84 894.072 370.805L893.2 372.605C909.922 380.705 926.887 386.65 944.096 390.438L944.526 388.484ZM894.089 370.813C877.442 362.354 862.257 351.027 848.533 336.825L847.095 338.215C860.964 352.567 876.327 364.03 893.183 372.596L894.089 370.813ZM848.554 336.848C835.252 322.188 825.954 302.7 820.705 278.326L818.749 278.747C824.054 303.38 833.481 323.214 847.073 338.192L848.554 336.848ZM820.705 278.326C817.289 262.466 818.004 245.455 822.883 227.278L820.952 226.759C816.002 245.196 815.257 262.531 818.749 278.747L820.705 278.326ZM822.883 227.278C827.761 209.109 836.513 191.709 849.157 175.078L847.565 173.867C834.781 190.683 825.904 208.314 820.952 226.759L822.883 227.278ZM849.167 175.065C861.707 158.002 877.929 142.914 897.85 129.805L896.75 128.134C876.656 141.357 860.253 156.604 847.556 173.88L849.167 175.065ZM897.844 129.808C918.18 116.622 942.1 107.057 969.622 101.13L969.201 99.1749C941.479 105.145 917.325 114.792 896.756 128.13L897.844 129.808ZM969.622 101.13C996.751 95.2875 1019.23 93.0071 1037.08 94.2526L1037.22 92.2574C1019.11 90.9938 996.426 93.3117 969.201 99.1749L969.622 101.13ZM1037.08 94.2526C1054.98 95.5012 1069.36 99.109 1080.28 105.023L1081.23 103.264C1069.98 97.169 1055.29 93.518 1037.22 92.2574L1037.08 94.2526ZM1080.3 105.036C1091.16 110.527 1099.06 117.53 1104.08 126.017L1105.8 124.999C1100.55 116.118 1092.33 108.877 1081.21 103.251L1080.3 105.036ZM1104.11 126.066C1109.53 134.124 1113.08 142.088 1114.77 149.961L1116.73 149.54C1114.97 141.375 1111.31 133.177 1105.77 124.949L1104.11 126.066ZM1114.77 149.961C1116.46 157.774 1115.81 166.363 1112.77 175.752L1114.68 176.367C1117.8 166.717 1118.5 157.766 1116.73 149.54L1114.77 149.961ZM1112.78 175.73C1109.63 184.738 1105.5 193.497 1100.39 202.008L1102.1 203.038C1107.28 194.414 1111.47 185.532 1114.67 176.39L1112.78 175.73ZM1100.4 201.981C1095.18 210.065 1089.6 217.529 1083.66 224.372L1085.17 225.684C1091.18 218.765 1096.82 211.225 1102.08 203.066L1100.4 201.981ZM1083.69 224.342C1077.63 230.759 1072.62 235.285 1068.64 237.965L1069.76 239.624C1073.92 236.82 1079.05 232.169 1085.14 225.714L1083.69 224.342ZM1070.19 238.949C1071.18 232.604 1071.68 224.047 1071.7 213.299L1069.7 213.295C1069.68 224 1069.18 232.441 1068.21 238.64L1070.19 238.949ZM1071.7 213.299C1071.72 202.382 1068.79 192.099 1062.93 182.468L1061.22 183.509C1066.9 192.836 1069.72 202.759 1069.7 213.295L1071.7 213.299ZM1062.95 182.502C1057.47 172.645 1047.51 165.288 1033.25 160.35L1032.6 162.24C1046.56 167.076 1056.03 174.182 1061.2 183.475L1062.95 182.502ZM1033.27 160.356C1019.33 155.272 998.682 155.76 971.462 161.622L971.883 163.577C999.016 157.734 1019.2 157.352 1032.58 162.234L1033.27 160.356ZM971.462 161.622C955.765 165.003 941.044 170.755 927.304 178.877L928.322 180.598C941.876 172.586 956.395 166.913 971.883 163.577L971.462 161.622ZM927.304 178.877C913.584 186.987 901.757 196.335 891.83 206.925L893.289 208.293C903.074 197.855 914.749 188.622 928.322 180.598L927.304 178.877ZM891.835 206.919C882.254 216.97 875.14 227.68 870.515 239.052L872.368 239.805C876.886 228.695 883.851 218.193 893.283 208.299L891.835 206.919ZM870.515 239.052C865.88 250.448 864.661 261.397 866.916 271.87L868.871 271.449C866.713 261.428 867.859 250.89 872.368 239.805L870.515 239.052ZM866.916 271.87C869.079 281.913 874.521 290.517 883.182 297.671L884.456 296.129C876.105 289.231 870.93 281.008 868.871 271.449L866.916 271.87ZM883.228 297.707C892.172 304.255 903.29 310.076 916.565 315.178L917.282 313.311C904.128 308.255 893.176 302.512 884.41 296.093L883.228 297.707ZM916.606 315.193C930.206 319.742 945.36 323.952 962.068 327.824L962.519 325.876C945.862 322.015 930.77 317.822 917.241 313.296L916.606 315.193ZM962.079 327.826C979.217 331.599 997.024 335.227 1015.5 338.711L1015.87 336.745C997.413 333.265 979.626 329.641 962.509 325.873L962.079 327.826ZM1015.49 338.709C1033.48 342.282 1051.4 346.57 1069.23 351.574L1069.77 349.648C1051.89 344.631 1033.92 340.33 1015.88 336.747L1015.49 338.709ZM1069.26 351.58C1086.95 356.126 1103.14 362.383 1117.84 370.346L1118.79 368.588C1103.94 360.54 1087.59 354.226 1069.75 349.642L1069.26 351.58ZM1117.86 370.355C1132.98 378.213 1145.72 387.963 1156.08 399.599L1157.58 398.268C1147.04 386.435 1134.1 376.541 1118.78 368.58L1117.86 370.355ZM1156.08 399.599C1166.41 411.188 1173.43 425.579 1177.14 442.808L1179.1 442.387C1175.33 424.865 1168.16 410.148 1157.58 398.268L1156.08 399.599ZM1177.14 442.808C1181.15 461.392 1181.47 480.071 1178.1 498.854L1180.07 499.206C1183.48 480.168 1183.16 461.226 1179.1 442.387L1177.14 442.808ZM1178.1 498.867C1175.09 517.1 1168.55 534.007 1158.49 549.595L1160.17 550.679C1170.38 534.862 1177.02 517.698 1180.07 499.193L1178.1 498.867ZM1158.48 549.609C1148.86 565.088 1135.8 578.548 1119.27 589.986L1120.41 591.631C1137.14 580.053 1150.4 566.399 1160.18 550.665L1158.48 549.609ZM1119.25 589.998C1102.84 601.858 1083.12 610.28 1060.07 615.244L1060.49 617.2C1083.77 612.186 1103.75 603.665 1120.42 591.619L1119.25 589.998ZM1060.07 615.244C1039.68 619.635 1019.7 620.461 1000.12 617.729L999.841 619.71C1019.67 622.476 1039.89 621.637 1060.49 617.2L1060.07 615.244ZM1000.12 617.729C980.503 614.993 962.694 609.786 946.683 602.117L945.819 603.921C962.035 611.688 980.045 616.948 999.841 619.71L1000.12 617.729ZM946.697 602.124C931.118 594.355 917.979 584.916 907.265 573.815L905.826 575.204C916.716 586.488 930.047 596.056 945.804 603.914L946.697 602.124ZM907.265 573.815C896.564 562.727 889.93 551.054 887.291 538.798L885.336 539.219C888.069 551.912 894.923 563.906 905.826 575.204L907.265 573.815ZM887.291 538.798C884.443 525.575 884.9 513.785 888.603 503.391L886.719 502.72C882.867 513.533 882.426 525.711 885.336 539.219L887.291 538.798ZM888.591 503.423C892.763 492.85 898.674 483.995 906.316 476.839L904.949 475.379C897.073 482.754 891.002 491.863 886.73 502.689L888.591 503.423ZM906.342 476.814C913.932 469.176 922.11 463.27 930.872 459.082L930.01 457.277C921.02 461.574 912.658 467.621 904.923 475.404L906.342 476.814ZM930.863 459.086C940.099 454.787 948.558 452.518 956.253 452.229L956.178 450.231C948.149 450.531 939.426 452.895 930.019 457.273L930.863 459.086Z" fill="#625564"/>
</g>
<g style="mix-blend-mode:screen" filter="url(#filter1_i)">
<path d="M158.959 114.906L159.311 116.049L149.678 119.723L156.973 123.326L156.287 124.486L147.586 120.092L147.902 119.107L158.959 114.906ZM162.721 127.246C162.346 127.246 162 127.158 161.684 126.982C161.367 126.807 161.098 126.584 160.875 126.314C160.652 126.045 160.482 125.752 160.365 125.436C160.236 125.107 160.172 124.791 160.172 124.486C160.172 124.24 160.26 123.789 160.436 123.133C160.611 122.477 160.84 121.691 161.121 120.777C161.402 119.863 161.725 118.861 162.088 117.771C162.451 116.682 162.82 115.58 163.195 114.467C163.57 113.354 163.939 112.27 164.303 111.215C164.666 110.16 164.988 109.211 165.27 108.367C165.551 107.512 165.779 106.803 165.955 106.24C166.131 105.678 166.219 105.338 166.219 105.221C166.219 104.963 166.148 104.787 166.008 104.693C165.879 104.588 165.709 104.541 165.498 104.553C165.299 104.564 165.082 104.611 164.848 104.693C164.613 104.764 164.396 104.846 164.197 104.939L163.986 104.465C165.182 103.879 166.154 103.469 166.904 103.234C167.666 103 168.193 102.883 168.486 102.883C168.568 102.883 168.662 102.918 168.768 102.988C168.873 103.047 168.973 103.135 169.066 103.252C169.16 103.369 169.242 103.504 169.312 103.656C169.383 103.797 169.418 103.943 169.418 104.096C169.418 104.189 169.283 104.582 169.014 105.273C168.744 105.953 168.422 106.85 168.047 107.963L165.094 116.418C165.422 115.961 165.744 115.539 166.061 115.152C166.377 114.754 166.676 114.408 166.957 114.115C167.238 113.811 167.508 113.576 167.766 113.412C168.023 113.236 168.264 113.148 168.486 113.148C168.639 113.148 168.82 113.213 169.031 113.342C169.242 113.459 169.441 113.617 169.629 113.816C169.816 114.004 169.975 114.215 170.104 114.449C170.244 114.684 170.314 114.918 170.314 115.152C170.314 115.574 170.268 116.025 170.174 116.506C170.092 116.975 169.98 117.455 169.84 117.947C169.699 118.428 169.547 118.896 169.383 119.354C169.219 119.811 169.061 120.227 168.908 120.602C168.756 120.965 168.621 121.281 168.504 121.551C168.387 121.809 168.311 121.979 168.275 122.061C167.936 122.834 167.52 123.537 167.027 124.17C166.547 124.803 166.043 125.348 165.516 125.805C165 126.262 164.49 126.619 163.986 126.877C163.494 127.123 163.072 127.246 162.721 127.246ZM167.361 114.977C167.244 114.977 167.086 115.082 166.887 115.293C166.699 115.492 166.477 115.75 166.219 116.066C165.961 116.383 165.68 116.74 165.375 117.139C165.082 117.537 164.777 117.93 164.461 118.316C164.227 119.043 163.969 119.84 163.688 120.707C163.406 121.574 163.084 122.605 162.721 123.801C162.51 124.504 162.422 125.096 162.457 125.576C162.504 126.045 162.691 126.279 163.02 126.279C163.242 126.279 163.477 126.15 163.723 125.893C163.969 125.635 164.221 125.295 164.479 124.873C164.736 124.439 164.988 123.947 165.234 123.396C165.492 122.834 165.732 122.248 165.955 121.639C166.189 121.029 166.406 120.42 166.605 119.811C166.805 119.189 166.975 118.615 167.115 118.088C167.268 117.549 167.385 117.068 167.467 116.646C167.549 116.225 167.59 115.908 167.59 115.697C167.59 115.65 167.584 115.592 167.572 115.521C167.572 115.439 167.561 115.357 167.537 115.275C167.525 115.193 167.502 115.123 167.467 115.064C167.443 115.006 167.408 114.977 167.361 114.977ZM171.633 117.859C171.914 117.18 172.26 116.57 172.67 116.031C173.08 115.48 173.531 115.018 174.023 114.643C174.516 114.256 175.037 113.963 175.588 113.764C176.139 113.564 176.695 113.465 177.258 113.465C177.504 113.465 177.773 113.535 178.066 113.676C178.371 113.805 178.652 113.986 178.91 114.221C179.168 114.455 179.379 114.742 179.543 115.082C179.719 115.41 179.807 115.773 179.807 116.172C179.807 116.512 179.766 116.904 179.684 117.35C179.602 117.783 179.496 118.234 179.367 118.703C179.238 119.16 179.098 119.617 178.945 120.074C178.793 120.531 178.646 120.953 178.506 121.34C178.365 121.715 178.236 122.037 178.119 122.307C178.014 122.576 177.938 122.758 177.891 122.852C177.609 123.543 177.264 124.158 176.854 124.697C176.443 125.236 175.992 125.699 175.5 126.086C175.008 126.461 174.486 126.748 173.936 126.947C173.396 127.146 172.846 127.246 172.283 127.246C172.037 127.246 171.768 127.182 171.475 127.053C171.17 126.924 170.889 126.742 170.631 126.508C170.373 126.262 170.162 125.975 169.998 125.646C169.822 125.318 169.734 124.955 169.734 124.557C169.734 124.205 169.775 123.812 169.857 123.379C169.939 122.934 170.045 122.482 170.174 122.025C170.303 121.557 170.443 121.094 170.596 120.637C170.748 120.18 170.895 119.764 171.035 119.389C171.176 119.014 171.299 118.691 171.404 118.422C171.51 118.141 171.586 117.953 171.633 117.859ZM176.502 114.432C176.232 114.432 175.939 114.672 175.623 115.152C175.318 115.621 175.008 116.225 174.691 116.963C174.387 117.701 174.088 118.51 173.795 119.389C173.514 120.256 173.262 121.094 173.039 121.902C172.828 122.711 172.652 123.426 172.512 124.047C172.383 124.656 172.318 125.066 172.318 125.277C172.318 125.617 172.383 125.863 172.512 126.016C172.641 126.168 172.816 126.244 173.039 126.244C173.238 126.244 173.449 126.109 173.672 125.84C173.895 125.559 174.123 125.189 174.357 124.732C174.592 124.275 174.82 123.748 175.043 123.15C175.277 122.553 175.5 121.938 175.711 121.305C175.922 120.66 176.115 120.021 176.291 119.389C176.479 118.756 176.637 118.17 176.766 117.631C176.906 117.092 177.012 116.629 177.082 116.242C177.164 115.844 177.205 115.568 177.205 115.416C177.205 115.076 177.141 114.83 177.012 114.678C176.883 114.514 176.713 114.432 176.502 114.432ZM190.652 105.221C190.652 104.963 190.582 104.787 190.441 104.693C190.312 104.588 190.148 104.541 189.949 104.553C189.75 104.564 189.533 104.611 189.299 104.693C189.064 104.764 188.848 104.846 188.648 104.939L188.42 104.465C189.627 103.879 190.605 103.469 191.355 103.234C192.117 103 192.639 102.883 192.92 102.883C193.002 102.883 193.096 102.918 193.201 102.988C193.318 103.047 193.424 103.135 193.518 103.252C193.611 103.369 193.693 103.504 193.764 103.656C193.834 103.797 193.869 103.943 193.869 104.096C193.869 104.189 193.734 104.582 193.465 105.273C193.195 105.953 192.873 106.85 192.498 107.963C192.275 108.619 192.029 109.34 191.76 110.125C191.49 110.91 191.203 111.73 190.898 112.586C190.605 113.43 190.307 114.291 190.002 115.17C189.709 116.049 189.422 116.904 189.141 117.736C188.859 118.568 188.59 119.365 188.332 120.127C188.086 120.877 187.869 121.551 187.682 122.148C187.506 122.746 187.365 123.256 187.26 123.678C187.154 124.088 187.102 124.369 187.102 124.521C187.102 124.732 187.184 124.838 187.348 124.838C187.477 124.826 187.67 124.762 187.928 124.645C188.186 124.516 188.479 124.328 188.807 124.082C189.146 123.836 189.51 123.537 189.896 123.186C190.295 122.822 190.693 122.4 191.092 121.92L191.479 122.289C190.963 122.91 190.412 123.514 189.826 124.1C189.24 124.674 188.66 125.184 188.086 125.629C187.523 126.074 186.99 126.432 186.486 126.701C185.994 126.971 185.584 127.105 185.256 127.105C185.092 127.105 184.957 127.035 184.852 126.895C184.746 126.742 184.658 126.555 184.588 126.332C184.529 126.109 184.488 125.875 184.465 125.629C184.441 125.383 184.43 125.154 184.43 124.943C184.43 124.85 184.441 124.744 184.465 124.627C184.5 124.498 184.535 124.34 184.57 124.152C184.184 124.562 183.762 124.955 183.305 125.33C182.859 125.693 182.426 126.016 182.004 126.297C181.594 126.566 181.225 126.783 180.896 126.947C180.557 127.1 180.316 127.176 180.176 127.176C180.047 127.176 179.947 127.117 179.877 127C179.795 126.895 179.736 126.766 179.701 126.613C179.654 126.449 179.625 126.285 179.613 126.121C179.59 125.945 179.578 125.793 179.578 125.664C179.578 125.254 179.625 124.785 179.719 124.258C179.812 123.73 179.93 123.186 180.07 122.623C180.199 122.061 180.352 121.51 180.527 120.971C180.691 120.42 180.85 119.922 181.002 119.477C181.154 119.02 181.289 118.639 181.406 118.334C181.523 118.018 181.605 117.812 181.652 117.719C181.863 117.262 182.186 116.805 182.619 116.348C183.053 115.891 183.562 115.445 184.148 115.012C184.734 114.578 185.373 114.168 186.064 113.781C186.768 113.383 187.482 113.025 188.209 112.709C188.537 111.748 188.848 110.84 189.141 109.984C189.445 109.117 189.709 108.35 189.932 107.682C190.154 107.014 190.33 106.463 190.459 106.029C190.588 105.596 190.652 105.326 190.652 105.221ZM184.764 123.01C184.975 122.354 185.203 121.65 185.449 120.9C185.695 120.139 185.947 119.359 186.205 118.562C186.475 117.766 186.75 116.957 187.031 116.137C187.312 115.316 187.588 114.508 187.857 113.711C187.529 113.805 187.201 113.939 186.873 114.115C186.557 114.279 186.305 114.432 186.117 114.572C185.812 114.807 185.502 115.205 185.186 115.768C184.881 116.318 184.588 116.945 184.307 117.648C184.025 118.34 183.762 119.061 183.516 119.811C183.281 120.561 183.076 121.264 182.9 121.92C182.725 122.564 182.584 123.115 182.479 123.572C182.385 124.018 182.338 124.281 182.338 124.363C182.338 124.457 182.344 124.545 182.355 124.627C182.379 124.697 182.438 124.732 182.531 124.732C182.625 124.732 182.76 124.686 182.936 124.592C183.111 124.498 183.299 124.375 183.498 124.223C183.709 124.059 183.926 123.871 184.148 123.66C184.371 123.449 184.576 123.232 184.764 123.01ZM196.242 130.709C196.137 131.119 195.926 131.506 195.609 131.869C195.293 132.232 194.93 132.561 194.52 132.854C194.109 133.158 193.676 133.428 193.219 133.662C192.762 133.908 192.334 134.107 191.936 134.26C191.537 134.424 191.197 134.547 190.916 134.629C190.623 134.723 190.441 134.77 190.371 134.77C190.266 134.77 190.125 134.758 189.949 134.734C189.762 134.711 189.615 134.664 189.51 134.594C189.381 134.523 189.229 134.389 189.053 134.189C188.877 134.002 188.701 133.779 188.525 133.521C188.35 133.264 188.191 132.988 188.051 132.695C187.898 132.414 187.799 132.15 187.752 131.904L189.879 130.129C190.102 130.691 190.342 131.189 190.6 131.623C190.705 131.811 190.822 131.992 190.951 132.168C191.08 132.355 191.215 132.52 191.355 132.66C191.496 132.801 191.643 132.912 191.795 132.994C191.947 133.076 192.1 133.117 192.252 133.117C192.369 133.117 192.475 133.07 192.568 132.977C192.674 132.883 192.768 132.76 192.85 132.607C192.943 132.467 193.031 132.297 193.113 132.098C193.195 131.91 193.277 131.711 193.359 131.5C193.617 130.809 193.857 130.111 194.08 129.408C194.303 128.717 194.514 128.014 194.713 127.299C194.924 126.584 195.129 125.857 195.328 125.119C195.539 124.381 195.75 123.625 195.961 122.852C195.586 123.344 195.188 123.854 194.766 124.381C194.355 124.896 193.951 125.371 193.553 125.805C193.166 126.227 192.803 126.578 192.463 126.859C192.123 127.141 191.848 127.281 191.637 127.281C191.555 127.281 191.408 127.246 191.197 127.176C190.986 127.105 190.775 126.994 190.564 126.842C190.342 126.678 190.143 126.473 189.967 126.227C189.791 125.98 189.697 125.688 189.686 125.348C189.686 125.23 189.762 124.943 189.914 124.486C190.055 124.029 190.242 123.479 190.477 122.834C190.699 122.178 190.939 121.475 191.197 120.725C191.455 119.963 191.695 119.225 191.918 118.51C192.152 117.783 192.34 117.115 192.48 116.506C192.633 115.896 192.709 115.422 192.709 115.082C192.709 114.988 192.697 114.906 192.674 114.836C192.65 114.766 192.627 114.707 192.604 114.66C192.568 114.613 192.533 114.572 192.498 114.537V114.291C192.756 114.127 193.066 113.992 193.43 113.887C193.793 113.77 194.145 113.682 194.484 113.623C194.871 113.553 195.275 113.5 195.697 113.465L195.768 113.57C195.686 114.191 195.545 114.883 195.346 115.645C195.146 116.395 194.924 117.168 194.678 117.965C194.432 118.75 194.174 119.529 193.904 120.303C193.646 121.076 193.406 121.791 193.184 122.447C192.961 123.104 192.779 123.684 192.639 124.188C192.498 124.68 192.428 125.043 192.428 125.277C192.428 125.441 192.475 125.523 192.568 125.523C192.662 125.523 192.809 125.441 193.008 125.277C193.207 125.102 193.436 124.879 193.693 124.609C193.951 124.34 194.221 124.041 194.502 123.713C194.795 123.385 195.07 123.068 195.328 122.764C195.598 122.447 195.838 122.16 196.049 121.902C196.26 121.633 196.418 121.434 196.523 121.305C196.688 120.789 196.863 120.232 197.051 119.635C197.238 119.025 197.414 118.439 197.578 117.877C197.754 117.314 197.9 116.793 198.018 116.312C198.146 115.832 198.229 115.457 198.264 115.188C198.287 115.059 198.287 114.959 198.264 114.889C198.24 114.807 198.211 114.736 198.176 114.678C198.129 114.619 198.082 114.572 198.035 114.537V114.291C198.305 114.127 198.621 113.992 198.984 113.887C199.348 113.77 199.699 113.682 200.039 113.623C200.426 113.553 200.83 113.5 201.252 113.465L201.322 113.57C201.24 113.84 201.105 114.268 200.918 114.854C200.73 115.428 200.514 116.09 200.268 116.84C200.033 117.578 199.781 118.363 199.512 119.195C199.254 120.016 199.002 120.807 198.756 121.568C198.521 122.318 198.311 123.004 198.123 123.625C197.947 124.234 197.824 124.697 197.754 125.014L196.242 130.709ZM201.217 124.486L200.865 123.326L210.498 119.652L203.203 116.049L203.889 114.906L212.59 119.301L212.273 120.268L201.217 124.486Z" fill="#3E3E47"/>
</g>
<g style="mix-blend-mode:screen" filter="url(#filter2_i)">
<path d="M103.592 53.9062L103.943 55.0488L94.3105 58.7227L101.605 62.3262L100.92 63.4863L92.2188 59.0918L92.5352 58.1074L103.592 53.9062ZM111.098 44.2207C111.098 43.9629 111.027 43.7871 110.887 43.6934C110.758 43.5879 110.594 43.541 110.395 43.5527C110.195 43.5645 109.979 43.6113 109.744 43.6934C109.51 43.7637 109.293 43.8457 109.094 43.9395L108.865 43.4648C110.061 42.8789 111.033 42.4688 111.783 42.2344C112.545 42 113.072 41.8828 113.365 41.8828C113.447 41.8828 113.541 41.918 113.646 41.9883C113.764 42.0469 113.869 42.1348 113.963 42.252C114.057 42.3691 114.139 42.5039 114.209 42.6562C114.279 42.7969 114.314 42.9434 114.314 43.0957C114.314 43.1895 114.18 43.582 113.91 44.2734C113.641 44.9531 113.318 45.8496 112.943 46.9629C112.639 47.9121 112.346 48.8086 112.064 49.6523C111.783 50.4844 111.514 51.2871 111.256 52.0605C110.998 52.8223 110.746 53.5605 110.5 54.2754C110.254 54.9785 110.008 55.6816 109.762 56.3848C110.125 55.916 110.506 55.4414 110.904 54.9609C111.303 54.4688 111.684 54.0293 112.047 53.6426C112.41 53.2559 112.744 52.9395 113.049 52.6934C113.365 52.4473 113.629 52.3242 113.84 52.3242C113.922 52.3242 114.062 52.3652 114.262 52.4473C114.473 52.5176 114.689 52.6348 114.912 52.7988C115.135 52.9512 115.328 53.1504 115.492 53.3965C115.668 53.6309 115.762 53.918 115.773 54.2578C115.773 54.375 115.691 54.6445 115.527 55.0664C115.363 55.4883 115.158 55.9922 114.912 56.5781C114.678 57.1641 114.42 57.8027 114.139 58.4941C113.857 59.1855 113.594 59.8652 113.348 60.5332C113.113 61.2012 112.914 61.8223 112.75 62.3965C112.586 62.9707 112.504 63.4395 112.504 63.8027C112.504 63.9434 112.516 64.0488 112.539 64.1191C112.574 64.1777 112.645 64.207 112.75 64.207C112.879 64.1953 113.072 64.1309 113.33 64.0137C113.588 63.8848 113.887 63.6973 114.227 63.4512C114.566 63.2051 114.93 62.9062 115.316 62.5547C115.715 62.1914 116.107 61.7695 116.494 61.2891L116.898 61.6406C116.406 62.2617 115.85 62.8535 115.229 63.416C114.619 63.9668 114.016 64.4531 113.418 64.875C112.82 65.2969 112.258 65.6309 111.73 65.877C111.203 66.123 110.775 66.2461 110.447 66.2461C110.389 66.2461 110.312 66.2227 110.219 66.1758C110.125 66.1289 110.031 66.0527 109.938 65.9473C109.844 65.8418 109.762 65.6953 109.691 65.5078C109.621 65.3203 109.586 65.0859 109.586 64.8047C109.586 64.6641 109.604 64.4883 109.639 64.2773C109.674 64.0547 109.715 63.832 109.762 63.6094C109.809 63.375 109.855 63.1641 109.902 62.9766C109.961 62.7773 110.002 62.6309 110.025 62.5371C110.131 62.127 110.277 61.6699 110.465 61.166C110.664 60.6504 110.875 60.1172 111.098 59.5664C111.32 59.0156 111.549 58.4707 111.783 57.9316C112.018 57.3809 112.229 56.8711 112.416 56.4023C112.604 55.9219 112.756 55.5059 112.873 55.1543C112.99 54.791 113.049 54.5156 113.049 54.3281C113.049 54.1641 113.002 54.082 112.908 54.082C112.826 54.082 112.703 54.1523 112.539 54.293C112.375 54.4219 112.182 54.5977 111.959 54.8203C111.748 55.043 111.52 55.2949 111.273 55.5762C111.027 55.8457 110.781 56.127 110.535 56.4199C110.289 56.7012 110.055 56.9766 109.832 57.2461C109.621 57.5039 109.434 57.7324 109.27 57.9316C108.859 59.1387 108.438 60.3926 108.004 61.6934C107.582 62.9824 107.137 64.418 106.668 66C106.539 66.0234 106.398 66.041 106.246 66.0527C105.977 66.0879 105.625 66.1055 105.191 66.1055C104.992 66.1055 104.781 66.0938 104.559 66.0703C104.336 66.0586 104.119 66.0352 103.908 66L103.785 65.8242C103.844 65.707 103.996 65.3262 104.242 64.6816C104.488 64.0254 104.793 63.1992 105.156 62.2031C105.508 61.207 105.9 60.0879 106.334 58.8457C106.756 57.6035 107.189 56.3379 107.635 55.0488C108.08 53.7598 108.508 52.4941 108.918 51.252C109.34 50.0098 109.709 48.8906 110.025 47.8945C110.354 46.8867 110.611 46.0547 110.799 45.3984C110.998 44.7422 111.098 44.3496 111.098 44.2207ZM124.809 46.2773C124.668 46.6055 124.504 46.998 124.316 47.4551C124.141 47.9121 123.947 48.4102 123.736 48.9492C123.525 49.4883 123.303 50.0625 123.068 50.6719C122.846 51.2812 122.611 51.9023 122.365 52.5352L124.809 52.4648L124.492 53.291L122.066 53.3262C121.668 54.3926 121.281 55.459 120.906 56.5254C120.531 57.5801 120.191 58.5645 119.887 59.4785C119.594 60.3926 119.354 61.1953 119.166 61.8867C118.99 62.5781 118.902 63.0879 118.902 63.416C118.902 63.6152 118.926 63.7559 118.973 63.8379C119.02 63.9082 119.119 63.9434 119.271 63.9434C119.365 63.9434 119.559 63.8613 119.852 63.6973C120.156 63.5215 120.502 63.2754 120.889 62.959C121.287 62.6426 121.697 62.2617 122.119 61.8164C122.553 61.3711 122.957 60.8789 123.332 60.3398L123.719 60.709C123.309 61.3066 122.811 61.9336 122.225 62.5898C121.65 63.2344 121.059 63.832 120.449 64.3828C119.84 64.9219 119.242 65.3672 118.656 65.7188C118.082 66.0703 117.59 66.2461 117.18 66.2461C117.121 66.2461 117.01 66.2168 116.846 66.1582C116.682 66.1113 116.553 66.0352 116.459 65.9297C116.389 65.8359 116.312 65.6367 116.23 65.332C116.137 65.0273 116.09 64.6289 116.09 64.1367C116.09 63.7969 116.184 63.252 116.371 62.502C116.547 61.752 116.787 60.8848 117.092 59.9004C117.385 58.916 117.719 57.8613 118.094 56.7363C118.48 55.5996 118.873 54.4746 119.271 53.3613L117.25 53.3965L117.531 52.6406L119.518 52.6055L121.715 46.6641C121.938 46.582 122.219 46.5117 122.559 46.4531C122.898 46.3945 123.232 46.3418 123.561 46.2949C123.947 46.248 124.34 46.207 124.738 46.1719C124.738 46.1953 124.75 46.2129 124.773 46.2246C124.797 46.2363 124.809 46.2539 124.809 46.2773ZM127.006 65.8242C127.182 65.4141 127.398 64.8574 127.656 64.1543C127.926 63.4512 128.201 62.6895 128.482 61.8691C128.764 61.0488 129.045 60.2109 129.326 59.3555C129.607 58.5 129.854 57.7148 130.064 57C130.287 56.2852 130.469 55.6875 130.609 55.207C130.75 54.7148 130.82 54.4219 130.82 54.3281C130.82 54.1641 130.773 54.082 130.68 54.082C130.562 54.082 130.375 54.2109 130.117 54.4688C129.871 54.7148 129.596 55.0254 129.291 55.4004C128.986 55.7637 128.676 56.1504 128.359 56.5605C128.043 56.9707 127.762 57.334 127.516 57.6504C127.27 58.3652 127.012 59.1035 126.742 59.8652C126.473 60.627 126.209 61.377 125.951 62.1152C125.705 62.8535 125.477 63.5566 125.266 64.2246C125.055 64.8926 124.879 65.4844 124.738 66C124.609 66.0234 124.469 66.041 124.316 66.0527C124.047 66.0879 123.695 66.1055 123.262 66.1055C123.062 66.1055 122.852 66.0938 122.629 66.0703C122.406 66.0586 122.189 66.0352 121.979 66L121.855 65.8242C121.914 65.707 122.02 65.4668 122.172 65.1035C122.312 64.7402 122.482 64.3008 122.682 63.7852C122.869 63.2695 123.08 62.6953 123.314 62.0625C123.537 61.4297 123.76 60.7852 123.982 60.1289C124.205 59.4727 124.422 58.8281 124.633 58.1953C124.844 57.5625 125.025 56.9824 125.178 56.4551C125.342 55.9277 125.471 55.4824 125.564 55.1191C125.67 54.7441 125.723 54.4922 125.723 54.3633C125.723 54.2344 125.705 54.1348 125.67 54.0645C125.646 53.9941 125.623 53.9297 125.6 53.8711C125.564 53.8242 125.529 53.7773 125.494 53.7305V53.4668C125.764 53.3027 126.08 53.1562 126.443 53.0273C126.807 52.8984 127.158 52.793 127.498 52.7109C127.885 52.6172 128.289 52.5352 128.711 52.4648L128.781 52.5703C128.781 52.7109 128.752 52.9336 128.693 53.2383C128.635 53.543 128.564 53.8711 128.482 54.2227C128.412 54.5742 128.33 54.9258 128.236 55.2773C128.154 55.6172 128.084 55.8926 128.025 56.1035C128.365 55.6465 128.711 55.1953 129.062 54.75C129.414 54.293 129.754 53.8887 130.082 53.5371C130.41 53.1738 130.709 52.8809 130.979 52.6582C131.26 52.4355 131.5 52.3242 131.699 52.3242C131.781 52.3242 131.916 52.3594 132.104 52.4297C132.303 52.5 132.502 52.6055 132.701 52.7461C132.9 52.8867 133.076 53.0684 133.229 53.291C133.393 53.5137 133.48 53.7773 133.492 54.082C133.492 54.1875 133.434 54.4277 133.316 54.8027C133.199 55.1777 133.064 55.5996 132.912 56.0684C133.275 55.6113 133.639 55.1602 134.002 54.7148C134.377 54.2695 134.729 53.8711 135.057 53.5195C135.396 53.168 135.707 52.8809 135.988 52.6582C136.281 52.4355 136.527 52.3242 136.727 52.3242C136.809 52.3242 136.955 52.3652 137.166 52.4473C137.377 52.5176 137.594 52.6348 137.816 52.7988C138.039 52.9512 138.232 53.1504 138.396 53.3965C138.572 53.6309 138.666 53.918 138.678 54.2578C138.678 54.375 138.596 54.6445 138.432 55.0664C138.268 55.4883 138.062 55.9922 137.816 56.5781C137.582 57.1641 137.324 57.8027 137.043 58.4941C136.762 59.1855 136.498 59.8652 136.252 60.5332C136.018 61.2012 135.818 61.8223 135.654 62.3965C135.49 62.9707 135.408 63.4395 135.408 63.8027C135.408 63.9434 135.42 64.0488 135.443 64.1191C135.479 64.1777 135.549 64.207 135.654 64.207C135.783 64.1953 135.977 64.1309 136.234 64.0137C136.492 63.8848 136.791 63.6973 137.131 63.4512C137.471 63.2051 137.834 62.9062 138.221 62.5547C138.619 62.1914 139.012 61.7695 139.398 61.2891L139.785 61.6406C139.293 62.2617 138.742 62.8535 138.133 63.416C137.523 63.9668 136.92 64.4531 136.322 64.875C135.725 65.2969 135.162 65.6309 134.635 65.877C134.107 66.123 133.68 66.2461 133.352 66.2461C133.293 66.2461 133.217 66.2227 133.123 66.1758C133.029 66.1289 132.936 66.0527 132.842 65.9473C132.748 65.8418 132.666 65.6953 132.596 65.5078C132.525 65.3203 132.49 65.0859 132.49 64.8047C132.49 64.6641 132.508 64.4883 132.543 64.2773C132.578 64.0547 132.619 63.832 132.666 63.6094C132.713 63.375 132.76 63.1641 132.807 62.9766C132.854 62.7773 132.889 62.6309 132.912 62.5371C133.018 62.127 133.164 61.6699 133.352 61.166C133.551 60.6504 133.762 60.1172 133.984 59.5664C134.207 59.0156 134.436 58.4707 134.67 57.9316C134.904 57.3809 135.115 56.8711 135.303 56.4023C135.49 55.9219 135.643 55.5059 135.76 55.1543C135.877 54.791 135.936 54.5156 135.936 54.3281C135.936 54.1641 135.889 54.082 135.795 54.082C135.689 54.082 135.508 54.1992 135.25 54.4336C134.992 54.668 134.705 54.9551 134.389 55.2949C134.084 55.6348 133.762 56.0039 133.422 56.4023C133.094 56.7891 132.795 57.1465 132.525 57.4746C132.197 58.5293 131.904 59.4668 131.646 60.2871C131.389 61.1074 131.154 61.8516 130.943 62.5195C130.732 63.1875 130.539 63.8027 130.363 64.3652C130.188 64.916 130.029 65.4609 129.889 66C129.76 66.0234 129.619 66.041 129.467 66.0527C129.197 66.0879 128.846 66.1055 128.412 66.1055C128.213 66.1055 128.002 66.0938 127.779 66.0703C127.557 66.0586 127.34 66.0352 127.129 66L127.006 65.8242ZM146.764 46.9629C146.471 47.8301 146.125 48.8203 145.727 49.9336C145.328 51.0352 144.918 52.1719 144.496 53.3438C144.086 54.5039 143.676 55.6582 143.266 56.8066C142.855 57.9551 142.492 59.0039 142.176 59.9531C141.859 60.8906 141.602 61.6934 141.402 62.3613C141.203 63.0293 141.104 63.4629 141.104 63.6621C141.104 63.873 141.191 63.9785 141.367 63.9785C141.484 63.9668 141.672 63.9023 141.93 63.7852C142.188 63.6562 142.486 63.4688 142.826 63.2227C143.166 62.9766 143.529 62.6777 143.916 62.3262C144.314 61.9629 144.713 61.541 145.111 61.0605L145.498 61.4297C144.982 62.0508 144.426 62.6543 143.828 63.2402C143.242 63.8145 142.662 64.3242 142.088 64.7695C141.525 65.2148 140.998 65.5723 140.506 65.8418C140.014 66.1113 139.604 66.2461 139.275 66.2461C139.111 66.2461 138.977 66.1699 138.871 66.0176C138.766 65.877 138.684 65.7012 138.625 65.4902C138.555 65.2676 138.508 65.0332 138.484 64.7871C138.461 64.5293 138.449 64.2949 138.449 64.084C138.449 64.0371 138.455 63.9668 138.467 63.873C138.467 63.7676 138.473 63.6562 138.484 63.5391C138.496 63.4102 138.514 63.2871 138.537 63.1699C138.549 63.041 138.566 62.9297 138.59 62.8359C138.812 62.0508 139.076 61.1953 139.381 60.2695C139.674 59.3438 139.99 58.3887 140.33 57.4043C140.67 56.4199 141.021 55.4238 141.385 54.416C141.748 53.4082 142.1 52.4355 142.439 51.498C142.791 50.5488 143.119 49.6582 143.424 48.8262C143.729 47.9824 143.998 47.2383 144.232 46.5938C144.467 45.9375 144.648 45.4043 144.777 44.9941C144.918 44.5723 144.988 44.3145 144.988 44.2207C144.988 43.9629 144.918 43.7871 144.777 43.6934C144.648 43.5879 144.484 43.541 144.285 43.5527C144.086 43.5645 143.869 43.6113 143.635 43.6934C143.4 43.7637 143.184 43.8457 142.984 43.9395L142.756 43.4648C143.963 42.8789 144.93 42.4688 145.656 42.2344C146.395 42 146.904 41.8828 147.186 41.8828C147.268 41.8828 147.361 41.918 147.467 41.9883C147.584 42.0469 147.689 42.1348 147.783 42.252C147.877 42.3691 147.959 42.5039 148.029 42.6562C148.1 42.7969 148.135 42.9434 148.135 43.0957C148.135 43.1895 148 43.582 147.73 44.2734C147.461 44.9531 147.139 45.8496 146.764 46.9629ZM145.217 63.4863L144.865 62.3262L154.498 58.6523L147.203 55.0488L147.889 53.9062L156.59 58.3008L156.273 59.2676L145.217 63.4863Z" fill="#3E3E47"/>
</g>
<g style="mix-blend-mode:screen">
<path d="M152.104 594.906L152.455 596.049L142.822 599.723L150.117 603.326L149.432 604.486L140.73 600.092L141.047 599.107L152.104 594.906ZM164.18 582.514L165.375 583.164L152.42 607.352L151.26 606.789L164.18 582.514ZM162.721 607.246C162.346 607.246 162 607.158 161.684 606.982C161.367 606.807 161.098 606.584 160.875 606.314C160.652 606.045 160.482 605.752 160.365 605.436C160.236 605.107 160.172 604.791 160.172 604.486C160.172 604.24 160.26 603.789 160.436 603.133C160.611 602.477 160.84 601.691 161.121 600.777C161.402 599.863 161.725 598.861 162.088 597.771C162.451 596.682 162.82 595.58 163.195 594.467C163.57 593.354 163.939 592.27 164.303 591.215C164.666 590.16 164.988 589.211 165.27 588.367C165.551 587.512 165.779 586.803 165.955 586.24C166.131 585.678 166.219 585.338 166.219 585.221C166.219 584.963 166.148 584.787 166.008 584.693C165.879 584.588 165.709 584.541 165.498 584.553C165.299 584.564 165.082 584.611 164.848 584.693C164.613 584.764 164.396 584.846 164.197 584.939L163.986 584.465C165.182 583.879 166.154 583.469 166.904 583.234C167.666 583 168.193 582.883 168.486 582.883C168.568 582.883 168.662 582.918 168.768 582.988C168.873 583.047 168.973 583.135 169.066 583.252C169.16 583.369 169.242 583.504 169.312 583.656C169.383 583.797 169.418 583.943 169.418 584.096C169.418 584.189 169.283 584.582 169.014 585.273C168.744 585.953 168.422 586.85 168.047 587.963L165.094 596.418C165.422 595.961 165.744 595.539 166.061 595.152C166.377 594.754 166.676 594.408 166.957 594.115C167.238 593.811 167.508 593.576 167.766 593.412C168.023 593.236 168.264 593.148 168.486 593.148C168.639 593.148 168.82 593.213 169.031 593.342C169.242 593.459 169.441 593.617 169.629 593.816C169.816 594.004 169.975 594.215 170.104 594.449C170.244 594.684 170.314 594.918 170.314 595.152C170.314 595.574 170.268 596.025 170.174 596.506C170.092 596.975 169.98 597.455 169.84 597.947C169.699 598.428 169.547 598.896 169.383 599.354C169.219 599.811 169.061 600.227 168.908 600.602C168.756 600.965 168.621 601.281 168.504 601.551C168.387 601.809 168.311 601.979 168.275 602.061C167.936 602.834 167.52 603.537 167.027 604.17C166.547 604.803 166.043 605.348 165.516 605.805C165 606.262 164.49 606.619 163.986 606.877C163.494 607.123 163.072 607.246 162.721 607.246ZM167.361 594.977C167.244 594.977 167.086 595.082 166.887 595.293C166.699 595.492 166.477 595.75 166.219 596.066C165.961 596.383 165.68 596.74 165.375 597.139C165.082 597.537 164.777 597.93 164.461 598.316C164.227 599.043 163.969 599.84 163.688 600.707C163.406 601.574 163.084 602.605 162.721 603.801C162.51 604.504 162.422 605.096 162.457 605.576C162.504 606.045 162.691 606.279 163.02 606.279C163.242 606.279 163.477 606.15 163.723 605.893C163.969 605.635 164.221 605.295 164.479 604.873C164.736 604.439 164.988 603.947 165.234 603.396C165.492 602.834 165.732 602.248 165.955 601.639C166.189 601.029 166.406 600.42 166.605 599.811C166.805 599.189 166.975 598.615 167.115 598.088C167.268 597.549 167.385 597.068 167.467 596.646C167.549 596.225 167.59 595.908 167.59 595.697C167.59 595.65 167.584 595.592 167.572 595.521C167.572 595.439 167.561 595.357 167.537 595.275C167.525 595.193 167.502 595.123 167.467 595.064C167.443 595.006 167.408 594.977 167.361 594.977ZM171.633 597.859C171.914 597.18 172.26 596.57 172.67 596.031C173.08 595.48 173.531 595.018 174.023 594.643C174.516 594.256 175.037 593.963 175.588 593.764C176.139 593.564 176.695 593.465 177.258 593.465C177.504 593.465 177.773 593.535 178.066 593.676C178.371 593.805 178.652 593.986 178.91 594.221C179.168 594.455 179.379 594.742 179.543 595.082C179.719 595.41 179.807 595.773 179.807 596.172C179.807 596.512 179.766 596.904 179.684 597.35C179.602 597.783 179.496 598.234 179.367 598.703C179.238 599.16 179.098 599.617 178.945 600.074C178.793 600.531 178.646 600.953 178.506 601.34C178.365 601.715 178.236 602.037 178.119 602.307C178.014 602.576 177.938 602.758 177.891 602.852C177.609 603.543 177.264 604.158 176.854 604.697C176.443 605.236 175.992 605.699 175.5 606.086C175.008 606.461 174.486 606.748 173.936 606.947C173.396 607.146 172.846 607.246 172.283 607.246C172.037 607.246 171.768 607.182 171.475 607.053C171.17 606.924 170.889 606.742 170.631 606.508C170.373 606.262 170.162 605.975 169.998 605.646C169.822 605.318 169.734 604.955 169.734 604.557C169.734 604.205 169.775 603.812 169.857 603.379C169.939 602.934 170.045 602.482 170.174 602.025C170.303 601.557 170.443 601.094 170.596 600.637C170.748 600.18 170.895 599.764 171.035 599.389C171.176 599.014 171.299 598.691 171.404 598.422C171.51 598.141 171.586 597.953 171.633 597.859ZM176.502 594.432C176.232 594.432 175.939 594.672 175.623 595.152C175.318 595.621 175.008 596.225 174.691 596.963C174.387 597.701 174.088 598.51 173.795 599.389C173.514 600.256 173.262 601.094 173.039 601.902C172.828 602.711 172.652 603.426 172.512 604.047C172.383 604.656 172.318 605.066 172.318 605.277C172.318 605.617 172.383 605.863 172.512 606.016C172.641 606.168 172.816 606.244 173.039 606.244C173.238 606.244 173.449 606.109 173.672 605.84C173.895 605.559 174.123 605.189 174.357 604.732C174.592 604.275 174.82 603.748 175.043 603.15C175.277 602.553 175.5 601.938 175.711 601.305C175.922 600.66 176.115 600.021 176.291 599.389C176.479 598.756 176.637 598.17 176.766 597.631C176.906 597.092 177.012 596.629 177.082 596.242C177.164 595.844 177.205 595.568 177.205 595.416C177.205 595.076 177.141 594.83 177.012 594.678C176.883 594.514 176.713 594.432 176.502 594.432ZM190.652 585.221C190.652 584.963 190.582 584.787 190.441 584.693C190.312 584.588 190.148 584.541 189.949 584.553C189.75 584.564 189.533 584.611 189.299 584.693C189.064 584.764 188.848 584.846 188.648 584.939L188.42 584.465C189.627 583.879 190.605 583.469 191.355 583.234C192.117 583 192.639 582.883 192.92 582.883C193.002 582.883 193.096 582.918 193.201 582.988C193.318 583.047 193.424 583.135 193.518 583.252C193.611 583.369 193.693 583.504 193.764 583.656C193.834 583.797 193.869 583.943 193.869 584.096C193.869 584.189 193.734 584.582 193.465 585.273C193.195 585.953 192.873 586.85 192.498 587.963C192.275 588.619 192.029 589.34 191.76 590.125C191.49 590.91 191.203 591.73 190.898 592.586C190.605 593.43 190.307 594.291 190.002 595.17C189.709 596.049 189.422 596.904 189.141 597.736C188.859 598.568 188.59 599.365 188.332 600.127C188.086 600.877 187.869 601.551 187.682 602.148C187.506 602.746 187.365 603.256 187.26 603.678C187.154 604.088 187.102 604.369 187.102 604.521C187.102 604.732 187.184 604.838 187.348 604.838C187.477 604.826 187.67 604.762 187.928 604.645C188.186 604.516 188.479 604.328 188.807 604.082C189.146 603.836 189.51 603.537 189.896 603.186C190.295 602.822 190.693 602.4 191.092 601.92L191.479 602.289C190.963 602.91 190.412 603.514 189.826 604.1C189.24 604.674 188.66 605.184 188.086 605.629C187.523 606.074 186.99 606.432 186.486 606.701C185.994 606.971 185.584 607.105 185.256 607.105C185.092 607.105 184.957 607.035 184.852 606.895C184.746 606.742 184.658 606.555 184.588 606.332C184.529 606.109 184.488 605.875 184.465 605.629C184.441 605.383 184.43 605.154 184.43 604.943C184.43 604.85 184.441 604.744 184.465 604.627C184.5 604.498 184.535 604.34 184.57 604.152C184.184 604.562 183.762 604.955 183.305 605.33C182.859 605.693 182.426 606.016 182.004 606.297C181.594 606.566 181.225 606.783 180.896 606.947C180.557 607.1 180.316 607.176 180.176 607.176C180.047 607.176 179.947 607.117 179.877 607C179.795 606.895 179.736 606.766 179.701 606.613C179.654 606.449 179.625 606.285 179.613 606.121C179.59 605.945 179.578 605.793 179.578 605.664C179.578 605.254 179.625 604.785 179.719 604.258C179.812 603.73 179.93 603.186 180.07 602.623C180.199 602.061 180.352 601.51 180.527 600.971C180.691 600.42 180.85 599.922 181.002 599.477C181.154 599.02 181.289 598.639 181.406 598.334C181.523 598.018 181.605 597.812 181.652 597.719C181.863 597.262 182.186 596.805 182.619 596.348C183.053 595.891 183.562 595.445 184.148 595.012C184.734 594.578 185.373 594.168 186.064 593.781C186.768 593.383 187.482 593.025 188.209 592.709C188.537 591.748 188.848 590.84 189.141 589.984C189.445 589.117 189.709 588.35 189.932 587.682C190.154 587.014 190.33 586.463 190.459 586.029C190.588 585.596 190.652 585.326 190.652 585.221ZM184.764 603.01C184.975 602.354 185.203 601.65 185.449 600.9C185.695 600.139 185.947 599.359 186.205 598.562C186.475 597.766 186.75 596.957 187.031 596.137C187.312 595.316 187.588 594.508 187.857 593.711C187.529 593.805 187.201 593.939 186.873 594.115C186.557 594.279 186.305 594.432 186.117 594.572C185.812 594.807 185.502 595.205 185.186 595.768C184.881 596.318 184.588 596.945 184.307 597.648C184.025 598.34 183.762 599.061 183.516 599.811C183.281 600.561 183.076 601.264 182.9 601.92C182.725 602.564 182.584 603.115 182.479 603.572C182.385 604.018 182.338 604.281 182.338 604.363C182.338 604.457 182.344 604.545 182.355 604.627C182.379 604.697 182.438 604.732 182.531 604.732C182.625 604.732 182.76 604.686 182.936 604.592C183.111 604.498 183.299 604.375 183.498 604.223C183.709 604.059 183.926 603.871 184.148 603.66C184.371 603.449 184.576 603.232 184.764 603.01ZM196.242 610.709C196.137 611.119 195.926 611.506 195.609 611.869C195.293 612.232 194.93 612.561 194.52 612.854C194.109 613.158 193.676 613.428 193.219 613.662C192.762 613.908 192.334 614.107 191.936 614.26C191.537 614.424 191.197 614.547 190.916 614.629C190.623 614.723 190.441 614.77 190.371 614.77C190.266 614.77 190.125 614.758 189.949 614.734C189.762 614.711 189.615 614.664 189.51 614.594C189.381 614.523 189.229 614.389 189.053 614.189C188.877 614.002 188.701 613.779 188.525 613.521C188.35 613.264 188.191 612.988 188.051 612.695C187.898 612.414 187.799 612.15 187.752 611.904L189.879 610.129C190.102 610.691 190.342 611.189 190.6 611.623C190.705 611.811 190.822 611.992 190.951 612.168C191.08 612.355 191.215 612.52 191.355 612.66C191.496 612.801 191.643 612.912 191.795 612.994C191.947 613.076 192.1 613.117 192.252 613.117C192.369 613.117 192.475 613.07 192.568 612.977C192.674 612.883 192.768 612.76 192.85 612.607C192.943 612.467 193.031 612.297 193.113 612.098C193.195 611.91 193.277 611.711 193.359 611.5C193.617 610.809 193.857 610.111 194.08 609.408C194.303 608.717 194.514 608.014 194.713 607.299C194.924 606.584 195.129 605.857 195.328 605.119C195.539 604.381 195.75 603.625 195.961 602.852C195.586 603.344 195.188 603.854 194.766 604.381C194.355 604.896 193.951 605.371 193.553 605.805C193.166 606.227 192.803 606.578 192.463 606.859C192.123 607.141 191.848 607.281 191.637 607.281C191.555 607.281 191.408 607.246 191.197 607.176C190.986 607.105 190.775 606.994 190.564 606.842C190.342 606.678 190.143 606.473 189.967 606.227C189.791 605.98 189.697 605.688 189.686 605.348C189.686 605.23 189.762 604.943 189.914 604.486C190.055 604.029 190.242 603.479 190.477 602.834C190.699 602.178 190.939 601.475 191.197 600.725C191.455 599.963 191.695 599.225 191.918 598.51C192.152 597.783 192.34 597.115 192.48 596.506C192.633 595.896 192.709 595.422 192.709 595.082C192.709 594.988 192.697 594.906 192.674 594.836C192.65 594.766 192.627 594.707 192.604 594.66C192.568 594.613 192.533 594.572 192.498 594.537V594.291C192.756 594.127 193.066 593.992 193.43 593.887C193.793 593.77 194.145 593.682 194.484 593.623C194.871 593.553 195.275 593.5 195.697 593.465L195.768 593.57C195.686 594.191 195.545 594.883 195.346 595.645C195.146 596.395 194.924 597.168 194.678 597.965C194.432 598.75 194.174 599.529 193.904 600.303C193.646 601.076 193.406 601.791 193.184 602.447C192.961 603.104 192.779 603.684 192.639 604.188C192.498 604.68 192.428 605.043 192.428 605.277C192.428 605.441 192.475 605.523 192.568 605.523C192.662 605.523 192.809 605.441 193.008 605.277C193.207 605.102 193.436 604.879 193.693 604.609C193.951 604.34 194.221 604.041 194.502 603.713C194.795 603.385 195.07 603.068 195.328 602.764C195.598 602.447 195.838 602.16 196.049 601.902C196.26 601.633 196.418 601.434 196.523 601.305C196.688 600.789 196.863 600.232 197.051 599.635C197.238 599.025 197.414 598.439 197.578 597.877C197.754 597.314 197.9 596.793 198.018 596.312C198.146 595.832 198.229 595.457 198.264 595.188C198.287 595.059 198.287 594.959 198.264 594.889C198.24 594.807 198.211 594.736 198.176 594.678C198.129 594.619 198.082 594.572 198.035 594.537V594.291C198.305 594.127 198.621 593.992 198.984 593.887C199.348 593.77 199.699 593.682 200.039 593.623C200.426 593.553 200.83 593.5 201.252 593.465L201.322 593.57C201.24 593.84 201.105 594.268 200.918 594.854C200.73 595.428 200.514 596.09 200.268 596.84C200.033 597.578 199.781 598.363 199.512 599.195C199.254 600.016 199.002 600.807 198.756 601.568C198.521 602.318 198.311 603.004 198.123 603.625C197.947 604.234 197.824 604.697 197.754 605.014L196.242 610.709ZM201.217 604.486L200.865 603.326L210.498 599.652L203.203 596.049L203.889 594.906L212.59 599.301L212.273 600.268L201.217 604.486Z" fill="#3E3E47"/>
</g>
<g style="mix-blend-mode:screen">
<path d="M83.7363 636.906L84.0879 638.049L74.4551 641.723L81.75 645.326L81.0645 646.486L72.3633 642.092L72.6797 641.107L83.7363 636.906ZM95.8125 624.514L97.0078 625.164L84.0527 649.352L82.8926 648.789L95.8125 624.514ZM98.0977 627.221C98.0977 626.963 98.0273 626.787 97.8867 626.693C97.7578 626.588 97.5938 626.541 97.3945 626.553C97.1953 626.564 96.9785 626.611 96.7441 626.693C96.5098 626.764 96.293 626.846 96.0938 626.939L95.8652 626.465C97.0605 625.879 98.0332 625.469 98.7832 625.234C99.5449 625 100.072 624.883 100.365 624.883C100.447 624.883 100.541 624.918 100.646 624.988C100.764 625.047 100.869 625.135 100.963 625.252C101.057 625.369 101.139 625.504 101.209 625.656C101.279 625.797 101.314 625.943 101.314 626.096C101.314 626.189 101.18 626.582 100.91 627.273C100.641 627.953 100.318 628.85 99.9434 629.963C99.6387 630.912 99.3457 631.809 99.0645 632.652C98.7832 633.484 98.5137 634.287 98.2559 635.061C97.998 635.822 97.7461 636.561 97.5 637.275C97.2539 637.979 97.0078 638.682 96.7617 639.385C97.125 638.916 97.5059 638.441 97.9043 637.961C98.3027 637.469 98.6836 637.029 99.0469 636.643C99.4102 636.256 99.7441 635.939 100.049 635.693C100.365 635.447 100.629 635.324 100.84 635.324C100.922 635.324 101.062 635.365 101.262 635.447C101.473 635.518 101.689 635.635 101.912 635.799C102.135 635.951 102.328 636.15 102.492 636.396C102.668 636.631 102.762 636.918 102.773 637.258C102.773 637.375 102.691 637.645 102.527 638.066C102.363 638.488 102.158 638.992 101.912 639.578C101.678 640.164 101.42 640.803 101.139 641.494C100.857 642.186 100.594 642.865 100.348 643.533C100.113 644.201 99.9141 644.822 99.75 645.396C99.5859 645.971 99.5039 646.439 99.5039 646.803C99.5039 646.943 99.5156 647.049 99.5391 647.119C99.5742 647.178 99.6445 647.207 99.75 647.207C99.8789 647.195 100.072 647.131 100.33 647.014C100.588 646.885 100.887 646.697 101.227 646.451C101.566 646.205 101.93 645.906 102.316 645.555C102.715 645.191 103.107 644.77 103.494 644.289L103.898 644.641C103.406 645.262 102.85 645.854 102.229 646.416C101.619 646.967 101.016 647.453 100.418 647.875C99.8203 648.297 99.2578 648.631 98.7305 648.877C98.2031 649.123 97.7754 649.246 97.4473 649.246C97.3887 649.246 97.3125 649.223 97.2188 649.176C97.125 649.129 97.0312 649.053 96.9375 648.947C96.8438 648.842 96.7617 648.695 96.6914 648.508C96.6211 648.32 96.5859 648.086 96.5859 647.805C96.5859 647.664 96.6035 647.488 96.6387 647.277C96.6738 647.055 96.7148 646.832 96.7617 646.609C96.8086 646.375 96.8555 646.164 96.9023 645.977C96.9609 645.777 97.002 645.631 97.0254 645.537C97.1309 645.127 97.2773 644.67 97.4648 644.166C97.6641 643.65 97.875 643.117 98.0977 642.566C98.3203 642.016 98.5488 641.471 98.7832 640.932C99.0176 640.381 99.2285 639.871 99.416 639.402C99.6035 638.922 99.7559 638.506 99.873 638.154C99.9902 637.791 100.049 637.516 100.049 637.328C100.049 637.164 100.002 637.082 99.9082 637.082C99.8262 637.082 99.7031 637.152 99.5391 637.293C99.375 637.422 99.1816 637.598 98.959 637.82C98.748 638.043 98.5195 638.295 98.2734 638.576C98.0273 638.846 97.7812 639.127 97.5352 639.42C97.2891 639.701 97.0547 639.977 96.832 640.246C96.6211 640.504 96.4336 640.732 96.2695 640.932C95.8594 642.139 95.4375 643.393 95.0039 644.693C94.582 645.982 94.1367 647.418 93.668 649C93.5391 649.023 93.3984 649.041 93.2461 649.053C92.9766 649.088 92.625 649.105 92.1914 649.105C91.9922 649.105 91.7812 649.094 91.5586 649.07C91.3359 649.059 91.1191 649.035 90.9082 649L90.7852 648.824C90.8438 648.707 90.9961 648.326 91.2422 647.682C91.4883 647.025 91.793 646.199 92.1562 645.203C92.5078 644.207 92.9004 643.088 93.334 641.846C93.7559 640.604 94.1895 639.338 94.6348 638.049C95.0801 636.76 95.5078 635.494 95.918 634.252C96.3398 633.01 96.709 631.891 97.0254 630.895C97.3535 629.887 97.6113 629.055 97.7988 628.398C97.998 627.742 98.0977 627.35 98.0977 627.221ZM111.809 629.277C111.668 629.605 111.504 629.998 111.316 630.455C111.141 630.912 110.947 631.41 110.736 631.949C110.525 632.488 110.303 633.062 110.068 633.672C109.846 634.281 109.611 634.902 109.365 635.535L111.809 635.465L111.492 636.291L109.066 636.326C108.668 637.393 108.281 638.459 107.906 639.525C107.531 640.58 107.191 641.564 106.887 642.479C106.594 643.393 106.354 644.195 106.166 644.887C105.99 645.578 105.902 646.088 105.902 646.416C105.902 646.615 105.926 646.756 105.973 646.838C106.02 646.908 106.119 646.943 106.271 646.943C106.365 646.943 106.559 646.861 106.852 646.697C107.156 646.521 107.502 646.275 107.889 645.959C108.287 645.643 108.697 645.262 109.119 644.816C109.553 644.371 109.957 643.879 110.332 643.34L110.719 643.709C110.309 644.307 109.811 644.934 109.225 645.59C108.65 646.234 108.059 646.832 107.449 647.383C106.84 647.922 106.242 648.367 105.656 648.719C105.082 649.07 104.59 649.246 104.18 649.246C104.121 649.246 104.01 649.217 103.846 649.158C103.682 649.111 103.553 649.035 103.459 648.93C103.389 648.836 103.312 648.637 103.23 648.332C103.137 648.027 103.09 647.629 103.09 647.137C103.09 646.797 103.184 646.252 103.371 645.502C103.547 644.752 103.787 643.885 104.092 642.9C104.385 641.916 104.719 640.861 105.094 639.736C105.48 638.6 105.873 637.475 106.271 636.361L104.25 636.396L104.531 635.641L106.518 635.605L108.715 629.664C108.938 629.582 109.219 629.512 109.559 629.453C109.898 629.395 110.232 629.342 110.561 629.295C110.947 629.248 111.34 629.207 111.738 629.172C111.738 629.195 111.75 629.213 111.773 629.225C111.797 629.236 111.809 629.254 111.809 629.277ZM114.006 648.824C114.182 648.414 114.398 647.857 114.656 647.154C114.926 646.451 115.201 645.689 115.482 644.869C115.764 644.049 116.045 643.211 116.326 642.355C116.607 641.5 116.854 640.715 117.064 640C117.287 639.285 117.469 638.688 117.609 638.207C117.75 637.715 117.82 637.422 117.82 637.328C117.82 637.164 117.773 637.082 117.68 637.082C117.562 637.082 117.375 637.211 117.117 637.469C116.871 637.715 116.596 638.025 116.291 638.4C115.986 638.764 115.676 639.15 115.359 639.561C115.043 639.971 114.762 640.334 114.516 640.65C114.27 641.365 114.012 642.104 113.742 642.865C113.473 643.627 113.209 644.377 112.951 645.115C112.705 645.854 112.477 646.557 112.266 647.225C112.055 647.893 111.879 648.484 111.738 649C111.609 649.023 111.469 649.041 111.316 649.053C111.047 649.088 110.695 649.105 110.262 649.105C110.062 649.105 109.852 649.094 109.629 649.07C109.406 649.059 109.189 649.035 108.979 649L108.855 648.824C108.914 648.707 109.02 648.467 109.172 648.104C109.312 647.74 109.482 647.301 109.682 646.785C109.869 646.27 110.08 645.695 110.314 645.062C110.537 644.43 110.76 643.785 110.982 643.129C111.205 642.473 111.422 641.828 111.633 641.195C111.844 640.562 112.025 639.982 112.178 639.455C112.342 638.928 112.471 638.482 112.564 638.119C112.67 637.744 112.723 637.492 112.723 637.363C112.723 637.234 112.705 637.135 112.67 637.064C112.646 636.994 112.623 636.93 112.6 636.871C112.564 636.824 112.529 636.777 112.494 636.73V636.467C112.764 636.303 113.08 636.156 113.443 636.027C113.807 635.898 114.158 635.793 114.498 635.711C114.885 635.617 115.289 635.535 115.711 635.465L115.781 635.57C115.781 635.711 115.752 635.934 115.693 636.238C115.635 636.543 115.564 636.871 115.482 637.223C115.412 637.574 115.33 637.926 115.236 638.277C115.154 638.617 115.084 638.893 115.025 639.104C115.365 638.646 115.711 638.195 116.062 637.75C116.414 637.293 116.754 636.889 117.082 636.537C117.41 636.174 117.709 635.881 117.979 635.658C118.26 635.436 118.5 635.324 118.699 635.324C118.781 635.324 118.916 635.359 119.104 635.43C119.303 635.5 119.502 635.605 119.701 635.746C119.9 635.887 120.076 636.068 120.229 636.291C120.393 636.514 120.48 636.777 120.492 637.082C120.492 637.188 120.434 637.428 120.316 637.803C120.199 638.178 120.064 638.6 119.912 639.068C120.275 638.611 120.639 638.16 121.002 637.715C121.377 637.27 121.729 636.871 122.057 636.52C122.396 636.168 122.707 635.881 122.988 635.658C123.281 635.436 123.527 635.324 123.727 635.324C123.809 635.324 123.955 635.365 124.166 635.447C124.377 635.518 124.594 635.635 124.816 635.799C125.039 635.951 125.232 636.15 125.396 636.396C125.572 636.631 125.666 636.918 125.678 637.258C125.678 637.375 125.596 637.645 125.432 638.066C125.268 638.488 125.062 638.992 124.816 639.578C124.582 640.164 124.324 640.803 124.043 641.494C123.762 642.186 123.498 642.865 123.252 643.533C123.018 644.201 122.818 644.822 122.654 645.396C122.49 645.971 122.408 646.439 122.408 646.803C122.408 646.943 122.42 647.049 122.443 647.119C122.479 647.178 122.549 647.207 122.654 647.207C122.783 647.195 122.977 647.131 123.234 647.014C123.492 646.885 123.791 646.697 124.131 646.451C124.471 646.205 124.834 645.906 125.221 645.555C125.619 645.191 126.012 644.77 126.398 644.289L126.785 644.641C126.293 645.262 125.742 645.854 125.133 646.416C124.523 646.967 123.92 647.453 123.322 647.875C122.725 648.297 122.162 648.631 121.635 648.877C121.107 649.123 120.68 649.246 120.352 649.246C120.293 649.246 120.217 649.223 120.123 649.176C120.029 649.129 119.936 649.053 119.842 648.947C119.748 648.842 119.666 648.695 119.596 648.508C119.525 648.32 119.49 648.086 119.49 647.805C119.49 647.664 119.508 647.488 119.543 647.277C119.578 647.055 119.619 646.832 119.666 646.609C119.713 646.375 119.76 646.164 119.807 645.977C119.854 645.777 119.889 645.631 119.912 645.537C120.018 645.127 120.164 644.67 120.352 644.166C120.551 643.65 120.762 643.117 120.984 642.566C121.207 642.016 121.436 641.471 121.67 640.932C121.904 640.381 122.115 639.871 122.303 639.402C122.49 638.922 122.643 638.506 122.76 638.154C122.877 637.791 122.936 637.516 122.936 637.328C122.936 637.164 122.889 637.082 122.795 637.082C122.689 637.082 122.508 637.199 122.25 637.434C121.992 637.668 121.705 637.955 121.389 638.295C121.084 638.635 120.762 639.004 120.422 639.402C120.094 639.789 119.795 640.146 119.525 640.475C119.197 641.529 118.904 642.467 118.646 643.287C118.389 644.107 118.154 644.852 117.943 645.52C117.732 646.188 117.539 646.803 117.363 647.365C117.188 647.916 117.029 648.461 116.889 649C116.76 649.023 116.619 649.041 116.467 649.053C116.197 649.088 115.846 649.105 115.412 649.105C115.213 649.105 115.002 649.094 114.779 649.07C114.557 649.059 114.34 649.035 114.129 649L114.006 648.824ZM133.764 629.963C133.471 630.83 133.125 631.82 132.727 632.934C132.328 634.035 131.918 635.172 131.496 636.344C131.086 637.504 130.676 638.658 130.266 639.807C129.855 640.955 129.492 642.004 129.176 642.953C128.859 643.891 128.602 644.693 128.402 645.361C128.203 646.029 128.104 646.463 128.104 646.662C128.104 646.873 128.191 646.979 128.367 646.979C128.484 646.967 128.672 646.902 128.93 646.785C129.188 646.656 129.486 646.469 129.826 646.223C130.166 645.977 130.529 645.678 130.916 645.326C131.314 644.963 131.713 644.541 132.111 644.061L132.498 644.43C131.982 645.051 131.426 645.654 130.828 646.24C130.242 646.814 129.662 647.324 129.088 647.77C128.525 648.215 127.998 648.572 127.506 648.842C127.014 649.111 126.604 649.246 126.275 649.246C126.111 649.246 125.977 649.17 125.871 649.018C125.766 648.877 125.684 648.701 125.625 648.49C125.555 648.268 125.508 648.033 125.484 647.787C125.461 647.529 125.449 647.295 125.449 647.084C125.449 647.037 125.455 646.967 125.467 646.873C125.467 646.768 125.473 646.656 125.484 646.539C125.496 646.41 125.514 646.287 125.537 646.17C125.549 646.041 125.566 645.93 125.59 645.836C125.812 645.051 126.076 644.195 126.381 643.27C126.674 642.344 126.99 641.389 127.33 640.404C127.67 639.42 128.021 638.424 128.385 637.416C128.748 636.408 129.1 635.436 129.439 634.498C129.791 633.549 130.119 632.658 130.424 631.826C130.729 630.982 130.998 630.238 131.232 629.594C131.467 628.938 131.648 628.404 131.777 627.994C131.918 627.572 131.988 627.314 131.988 627.221C131.988 626.963 131.918 626.787 131.777 626.693C131.648 626.588 131.484 626.541 131.285 626.553C131.086 626.564 130.869 626.611 130.635 626.693C130.4 626.764 130.184 626.846 129.984 626.939L129.756 626.465C130.963 625.879 131.93 625.469 132.656 625.234C133.395 625 133.904 624.883 134.186 624.883C134.268 624.883 134.361 624.918 134.467 624.988C134.584 625.047 134.689 625.135 134.783 625.252C134.877 625.369 134.959 625.504 135.029 625.656C135.1 625.797 135.135 625.943 135.135 626.096C135.135 626.189 135 626.582 134.73 627.273C134.461 627.953 134.139 628.85 133.764 629.963ZM132.217 646.486L131.865 645.326L141.498 641.652L134.203 638.049L134.889 636.906L143.59 641.301L143.273 642.268L132.217 646.486Z" fill="#3E3E47"/>
</g>
<defs>
<filter id="filter0_i" x="816.588" y="91.9229" width="365.818" height="533.379" filterUnits="userSpaceOnUse" color-interpolation-filters="sRGB">
<feFlood flood-opacity="0" result="BackgroundImageFix"/>
<feBlend mode="normal" in="SourceGraphic" in2="BackgroundImageFix" result="shape"/>
<feColorMatrix in="SourceAlpha" type="matrix" values="0 0 0 0 0 0 0 0 0 0 0 0 0 0 0 0 0 0 127 0" result="hardAlpha"/>
<feOffset dy="4"/>
<feGaussianBlur stdDeviation="2"/>
<feComposite in2="hardAlpha" operator="arithmetic" k2="-1" k3="1"/>
<feColorMatrix type="matrix" values="0 0 0 0 0 0 0 0 0 0 0 0 0 0 0 0 0 0 0.25 0"/>
<feBlend mode="normal" in2="shape" result="effect1_innerShadow"/>
</filter>
<filter id="filter1_i" x="147.586" y="102.883" width="65.0039" height="35.8867" filterUnits="userSpaceOnUse" color-interpolation-filters="sRGB">
<feFlood flood-opacity="0" result="BackgroundImageFix"/>
<feBlend mode="normal" in="SourceGraphic" in2="BackgroundImageFix" result="shape"/>
<feColorMatrix in="SourceAlpha" type="matrix" values="0 0 0 0 0 0 0 0 0 0 0 0 0 0 0 0 0 0 127 0" result="hardAlpha"/>
<feOffset dy="4"/>
<feGaussianBlur stdDeviation="2"/>
<feComposite in2="hardAlpha" operator="arithmetic" k2="-1" k3="1"/>
<feColorMatrix type="matrix" values="0 0 0 0 0 0 0 0 0 0 0 0 0 0 0 0 0 0 0.25 0"/>
<feBlend mode="normal" in2="shape" result="effect1_innerShadow"/>
</filter>
<filter id="filter2_i" x="92.2188" y="41.8828" width="64.3711" height="28.3633" filterUnits="userSpaceOnUse" color-interpolation-filters="sRGB">
<feFlood flood-opacity="0" result="BackgroundImageFix"/>
<feBlend mode="normal" in="SourceGraphic" in2="BackgroundImageFix" result="shape"/>
<feColorMatrix in="SourceAlpha" type="matrix" values="0 0 0 0 0 0 0 0 0 0 0 0 0 0 0 0 0 0 127 0" result="hardAlpha"/>
<feOffset dy="4"/>
<feGaussianBlur stdDeviation="2"/>
<feComposite in2="hardAlpha" operator="arithmetic" k2="-1" k3="1"/>
<feColorMatrix type="matrix" values="0 0 0 0 0 0 0 0 0 0 0 0 0 0 0 0 0 0 0.25 0"/>
<feBlend mode="normal" in2="shape" result="effect1_innerShadow"/>
</filter>
</defs>
</svg>
