<svg width="1752" height="892" viewBox="0 0 1752 892" fill="none" xmlns="http://www.w3.org/2000/svg">
<rect width="1752" height="892" fill="#71368D" fill-opacity="0.56"/>
<g style="mix-blend-mode:screen">
<g filter="url(#filter0_i)">
<path d="M968.215 561.23C961.985 569.098 960.151 581.148 962.715 597.378C965.627 613.067 971.755 628.53 981.096 643.766C990.788 658.462 1003.21 670.703 1018.37 680.491C1033.54 690.279 1050.47 693.158 1069.18 689.128C1081.21 686.537 1090.84 681.435 1098.05 673.82C1105.72 666.109 1111.31 657.446 1114.83 647.83C1118.7 637.672 1120.83 626.959 1121.2 615.691C1121.57 604.423 1120.65 593.666 1118.44 583.419C1115.28 568.717 1109.74 557.089 1101.84 548.535C1094.38 539.885 1085.21 533.003 1074.32 527.89C1063.78 522.235 1051.96 518.253 1038.88 515.943C1026.14 513.092 1013.19 510.288 1000.01 507.532C987.908 505.476 973.343 502.786 956.311 499.461C939.183 495.691 922.291 489.772 905.636 481.705C888.885 473.192 873.611 461.797 859.814 447.52C846.366 432.701 837.004 413.04 831.727 388.537C828.273 372.498 829.003 355.325 833.918 337.018C838.832 318.711 847.647 301.196 860.361 284.472C872.98 267.303 889.293 252.135 909.3 238.969C929.753 225.707 953.79 216.101 981.412 210.153C1008.59 204.3 1031.17 202 1049.15 203.255C1067.14 204.51 1081.67 208.139 1092.76 214.143C1103.74 219.702 1111.8 226.824 1116.94 235.508C1122.42 243.651 1126.02 251.731 1127.75 259.751C1129.48 267.77 1128.8 276.54 1125.73 286.06C1122.55 295.135 1118.39 303.956 1113.24 312.523C1108 320.645 1102.39 328.147 1096.41 335.028C1090.34 341.464 1085.27 346.053 1081.2 348.794C1082.18 342.523 1082.68 334.024 1082.7 323.297C1082.72 312.571 1079.84 302.468 1074.07 292.989C1068.75 283.413 1059.03 276.182 1044.93 271.295C1031.27 266.312 1010.85 266.747 983.673 272.6C968.08 275.958 953.46 281.671 939.813 289.738C926.167 297.805 914.415 307.095 904.559 317.609C895.052 327.581 888.013 338.188 883.441 349.428C878.869 360.669 877.687 371.413 879.894 381.66C882.005 391.461 887.313 399.874 895.819 406.9C904.674 413.384 915.709 419.165 928.923 424.244C942.488 428.782 957.611 432.984 974.294 436.85C991.422 440.62 1009.22 444.246 1027.68 447.728C1045.7 451.306 1063.64 455.6 1081.5 460.611C1099.27 465.176 1115.54 471.462 1130.32 479.467C1145.54 487.377 1158.38 497.199 1168.83 508.933C1179.28 520.668 1186.38 535.222 1190.12 552.597C1194.15 571.309 1194.47 590.12 1191.09 609.03C1188.05 627.399 1181.46 644.435 1171.33 660.137C1161.63 675.743 1148.47 689.301 1131.84 700.808C1115.3 712.761 1095.44 721.233 1072.28 726.222C1051.78 730.636 1031.68 731.468 1011.98 728.719C992.274 725.971 974.364 720.737 958.251 713.019C942.582 705.205 929.347 695.702 918.546 684.509C907.744 673.316 901 661.483 898.313 649.008C895.435 635.643 895.884 623.659 899.661 613.056C903.883 602.357 909.873 593.374 917.632 586.109C925.295 578.399 933.565 572.422 942.441 568.179C951.762 563.841 960.354 561.525 968.215 561.23Z" fill="#625564" fill-opacity="0.99"/>
</g>
<path d="M968.215 561.23L968.999 561.851L970.347 560.149L968.178 560.231L968.215 561.23ZM962.715 597.378L961.727 597.534L961.729 597.547L961.731 597.561L962.715 597.378ZM981.096 643.766L980.244 644.289L980.252 644.303L980.262 644.317L981.096 643.766ZM1098.05 673.82L1097.34 673.115L1097.34 673.123L1097.33 673.132L1098.05 673.82ZM1114.83 647.83L1113.9 647.473L1113.89 647.486L1114.83 647.83ZM1101.84 548.535L1101.08 549.188L1101.09 549.201L1101.1 549.214L1101.84 548.535ZM1074.32 527.89L1073.84 528.771L1073.87 528.784L1073.89 528.795L1074.32 527.89ZM1038.88 515.943L1038.66 516.919L1038.68 516.924L1038.7 516.928L1038.88 515.943ZM1000.01 507.532L1000.21 506.554L1000.19 506.55L1000.17 506.547L1000.01 507.532ZM956.311 499.461L956.096 500.438L956.108 500.44L956.119 500.443L956.311 499.461ZM905.636 481.705L905.183 482.596L905.191 482.601L905.2 482.605L905.636 481.705ZM859.814 447.52L859.073 448.192L859.084 448.203L859.095 448.215L859.814 447.52ZM860.361 284.472L861.157 285.078L861.162 285.071L861.167 285.065L860.361 284.472ZM909.3 238.969L908.756 238.13L908.75 238.134L909.3 238.969ZM1092.76 214.143L1092.28 215.023L1092.29 215.029L1092.3 215.036L1092.76 214.143ZM1116.94 235.508L1116.08 236.017L1116.09 236.042L1116.11 236.066L1116.94 235.508ZM1125.73 286.06L1126.67 286.39L1126.67 286.379L1126.68 286.368L1125.73 286.06ZM1113.24 312.523L1114.08 313.066L1114.09 313.052L1114.1 313.038L1113.24 312.523ZM1096.41 335.028L1097.14 335.714L1097.16 335.699L1097.17 335.684L1096.41 335.028ZM1081.2 348.794L1080.21 348.64L1079.86 350.903L1081.76 349.624L1081.2 348.794ZM1074.07 292.989L1073.2 293.475L1073.21 293.492L1073.22 293.509L1074.07 292.989ZM1044.93 271.295L1044.58 272.234L1044.59 272.237L1044.6 272.24L1044.93 271.295ZM904.559 317.609L905.283 318.299L905.289 318.293L904.559 317.609ZM883.441 349.428L882.515 349.052L883.441 349.428ZM895.819 406.9L895.182 407.671L895.204 407.689L895.228 407.707L895.819 406.9ZM928.923 424.244L928.565 425.178L928.585 425.186L928.606 425.193L928.923 424.244ZM974.294 436.85L974.068 437.824L974.079 437.826L974.294 436.85ZM1027.68 447.728L1027.88 446.747L1027.87 446.745L1027.68 447.728ZM1081.5 460.611L1081.23 461.574L1081.24 461.577L1081.26 461.58L1081.5 460.611ZM1130.32 479.467L1129.84 480.347L1129.85 480.351L1129.86 480.355L1130.32 479.467ZM1191.09 609.03L1190.1 608.854L1190.1 608.867L1191.09 609.03ZM1171.33 660.137L1170.49 659.595L1170.48 659.602L1170.48 659.609L1171.33 660.137ZM1131.84 700.808L1131.27 699.986L1131.26 699.992L1131.25 699.998L1131.84 700.808ZM958.251 713.019L957.804 713.914L957.812 713.918L957.819 713.921L958.251 713.019ZM899.661 613.056L898.73 612.689L898.724 612.704L898.719 612.72L899.661 613.056ZM917.632 586.109L918.316 586.839L918.329 586.827L918.342 586.814L917.632 586.109ZM942.441 568.179L942.019 567.273L942.01 567.277L942.441 568.179ZM967.432 560.609C960.944 568.802 959.147 581.197 961.727 597.534L963.702 597.222C961.156 581.098 963.026 569.394 968.999 561.851L967.432 560.609ZM961.731 597.561C964.669 613.384 970.846 628.961 980.244 644.289L981.949 643.244C972.663 628.099 966.586 612.75 963.698 597.195L961.731 597.561ZM980.262 644.317C990.031 659.131 1002.56 671.47 1017.83 681.331L1018.92 679.651C1003.87 669.936 991.544 657.792 981.931 643.216L980.262 644.317ZM1017.83 681.331C1033.23 691.272 1050.44 694.187 1069.39 690.105L1068.97 688.15C1050.5 692.128 1033.84 689.285 1018.92 679.651L1017.83 681.331ZM1069.39 690.105C1081.59 687.48 1091.4 682.293 1098.78 674.508L1097.33 673.132C1090.27 680.576 1080.84 685.595 1068.97 688.15L1069.39 690.105ZM1098.76 674.525C1106.52 666.718 1112.2 657.934 1115.77 648.174L1113.89 647.486C1110.42 656.958 1104.91 665.5 1097.34 673.115L1098.76 674.525ZM1115.77 648.186C1119.68 637.921 1121.82 627.099 1122.2 615.724L1120.2 615.658C1119.83 626.82 1117.73 637.423 1113.9 647.473L1115.77 648.186ZM1122.2 615.724C1122.57 604.38 1121.64 593.541 1119.42 583.208L1117.46 583.629C1119.65 593.791 1120.57 604.466 1120.2 615.658L1122.2 615.724ZM1119.42 583.208C1116.23 568.381 1110.63 556.575 1102.57 547.856L1101.1 549.214C1108.85 557.603 1114.32 569.052 1117.46 583.629L1119.42 583.208ZM1102.6 547.882C1095.04 539.12 1085.75 532.155 1074.74 526.985L1073.89 528.795C1084.66 533.852 1093.72 540.65 1101.08 549.188L1102.6 547.882ZM1074.79 527.009C1064.14 521.299 1052.23 517.285 1039.05 514.958L1038.7 516.928C1051.7 519.221 1063.41 523.172 1073.84 528.771L1074.79 527.009ZM1039.1 514.967C1026.36 512.115 1013.39 509.31 1000.21 506.554L999.801 508.511C1012.98 511.266 1025.93 514.068 1038.66 516.919L1039.1 514.967ZM1000.17 506.547C988.086 504.492 973.53 501.803 956.503 498.48L956.119 500.443C973.157 503.768 987.73 506.46 999.838 508.518L1000.17 506.547ZM956.526 498.484C939.478 494.732 922.661 488.84 906.072 480.805L905.2 482.605C921.922 490.705 938.887 496.65 956.096 500.438L956.526 498.484ZM906.089 480.813C889.442 472.354 874.257 461.027 860.533 446.825L859.095 448.215C872.964 462.567 888.327 474.03 905.183 482.596L906.089 480.813ZM860.554 446.848C847.252 432.188 837.954 412.7 832.705 388.326L830.749 388.747C836.054 413.38 845.481 433.214 859.073 448.192L860.554 446.848ZM832.705 388.326C829.289 372.466 830.004 355.455 834.883 337.278L832.952 336.759C828.002 355.196 827.257 372.531 830.749 388.747L832.705 388.326ZM834.883 337.278C839.761 319.109 848.513 301.709 861.157 285.078L859.565 283.867C846.781 300.683 837.904 318.314 832.952 336.759L834.883 337.278ZM861.167 285.065C873.707 268.002 889.929 252.914 909.85 239.805L908.75 238.134C888.656 251.357 872.253 266.604 859.556 283.88L861.167 285.065ZM909.844 239.808C930.18 226.622 954.1 217.057 981.622 211.13L981.201 209.175C953.479 215.145 929.325 224.792 908.756 238.13L909.844 239.808ZM981.622 211.13C1008.75 205.288 1031.23 203.007 1049.08 204.253L1049.22 202.257C1031.11 200.994 1008.43 203.312 981.201 209.175L981.622 211.13ZM1049.08 204.253C1066.98 205.501 1081.36 209.109 1092.28 215.023L1093.23 213.264C1081.98 207.169 1067.29 203.518 1049.22 202.257L1049.08 204.253ZM1092.3 215.036C1103.16 220.527 1111.06 227.53 1116.08 236.017L1117.8 234.999C1112.55 226.118 1104.33 218.877 1093.21 213.251L1092.3 215.036ZM1116.11 236.066C1121.53 244.124 1125.08 252.088 1126.77 259.961L1128.73 259.54C1126.97 251.375 1123.31 243.177 1117.77 234.949L1116.11 236.066ZM1126.77 259.961C1128.46 267.774 1127.81 276.363 1124.77 285.752L1126.68 286.368C1129.8 276.717 1130.5 267.766 1128.73 259.54L1126.77 259.961ZM1124.78 285.73C1121.63 294.738 1117.5 303.497 1112.39 312.008L1114.1 313.038C1119.28 304.415 1123.47 295.532 1126.67 286.39L1124.78 285.73ZM1112.4 311.981C1107.18 320.065 1101.6 327.529 1095.66 334.372L1097.17 335.684C1103.18 328.765 1108.82 321.225 1114.08 313.066L1112.4 311.981ZM1095.69 334.342C1089.63 340.759 1084.62 345.285 1080.64 347.965L1081.76 349.624C1085.92 346.82 1091.05 342.169 1097.14 335.714L1095.69 334.342ZM1082.19 348.949C1083.18 342.604 1083.68 334.047 1083.7 323.299L1081.7 323.295C1081.68 334 1081.18 342.441 1080.21 348.64L1082.19 348.949ZM1083.7 323.299C1083.72 312.382 1080.79 302.099 1074.93 292.469L1073.22 293.509C1078.9 302.836 1081.72 312.759 1081.7 323.295L1083.7 323.299ZM1074.95 292.502C1069.47 282.645 1059.51 275.288 1045.25 270.35L1044.6 272.24C1058.56 277.076 1068.03 284.182 1073.2 293.475L1074.95 292.502ZM1045.27 270.356C1031.33 265.272 1010.68 265.76 983.462 271.622L983.883 273.577C1011.02 267.734 1031.2 267.352 1044.58 272.234L1045.27 270.356ZM983.462 271.622C967.765 275.003 953.044 280.755 939.304 288.877L940.322 290.598C953.876 282.586 968.395 276.913 983.883 273.577L983.462 271.622ZM939.304 288.877C925.584 296.987 913.757 306.335 903.83 316.925L905.289 318.293C915.074 307.855 926.749 298.622 940.322 290.598L939.304 288.877ZM903.835 316.919C894.254 326.97 887.14 337.68 882.515 349.052L884.368 349.805C888.886 338.696 895.851 328.193 905.283 318.299L903.835 316.919ZM882.515 349.052C877.88 360.448 876.661 371.397 878.916 381.87L880.871 381.449C878.713 371.428 879.859 360.89 884.368 349.805L882.515 349.052ZM878.916 381.87C881.079 391.914 886.521 400.517 895.182 407.671L896.456 406.129C888.105 399.231 882.93 391.008 880.871 381.449L878.916 381.87ZM895.228 407.707C904.172 414.256 915.29 420.076 928.565 425.178L929.282 423.311C916.128 418.255 905.176 412.512 896.41 406.093L895.228 407.707ZM928.606 425.193C942.206 429.742 957.36 433.952 974.068 437.824L974.519 435.876C957.862 432.015 942.77 427.822 929.241 423.296L928.606 425.193ZM974.079 437.826C991.217 441.599 1009.02 445.227 1027.5 448.711L1027.87 446.745C1009.41 443.265 991.626 439.641 974.509 435.873L974.079 437.826ZM1027.49 448.709C1045.48 452.282 1063.4 456.57 1081.23 461.574L1081.77 459.648C1063.89 454.631 1045.92 450.33 1027.88 446.747L1027.49 448.709ZM1081.26 461.58C1098.95 466.126 1115.14 472.383 1129.84 480.347L1130.79 478.588C1115.94 470.54 1099.59 464.226 1081.75 459.642L1081.26 461.58ZM1129.86 480.355C1144.98 488.214 1157.72 497.963 1168.08 509.599L1169.58 508.268C1159.04 496.435 1146.1 486.541 1130.78 478.58L1129.86 480.355ZM1168.08 509.599C1178.41 521.188 1185.43 535.579 1189.14 552.808L1191.1 552.387C1187.33 534.865 1180.16 520.148 1169.58 508.268L1168.08 509.599ZM1189.14 552.808C1193.15 571.392 1193.47 590.071 1190.1 608.854L1192.07 609.206C1195.48 590.169 1195.16 571.226 1191.1 552.387L1189.14 552.808ZM1190.1 608.867C1187.09 627.1 1180.55 644.007 1170.49 659.595L1172.17 660.679C1182.38 644.862 1189.02 627.698 1192.07 609.193L1190.1 608.867ZM1170.48 659.609C1160.86 675.088 1147.8 688.548 1131.27 699.986L1132.41 701.631C1149.14 690.053 1162.4 676.399 1172.18 660.665L1170.48 659.609ZM1131.25 699.998C1114.84 711.858 1095.12 720.28 1072.07 725.244L1072.49 727.2C1095.77 722.186 1115.75 713.665 1132.42 701.619L1131.25 699.998ZM1072.07 725.244C1051.68 729.635 1031.7 730.461 1012.12 727.729L1011.84 729.71C1031.67 732.476 1051.89 731.637 1072.49 727.2L1072.07 725.244ZM1012.12 727.729C992.503 724.993 974.694 719.786 958.683 712.117L957.819 713.921C974.035 721.688 992.045 726.948 1011.84 729.71L1012.12 727.729ZM958.697 712.124C943.118 704.355 929.979 694.916 919.265 683.815L917.826 685.204C928.716 696.488 942.047 706.056 957.804 713.914L958.697 712.124ZM919.265 683.815C908.564 672.727 901.93 661.054 899.291 648.798L897.336 649.219C900.069 661.912 906.923 673.906 917.826 685.204L919.265 683.815ZM899.291 648.798C896.443 635.575 896.9 623.785 900.603 613.391L898.719 612.72C894.867 623.533 894.426 635.711 897.336 649.219L899.291 648.798ZM900.591 613.423C904.763 602.85 910.674 593.995 918.316 586.839L916.949 585.379C909.073 592.754 903.002 601.863 898.73 612.689L900.591 613.423ZM918.342 586.814C925.932 579.176 934.11 573.27 942.872 569.082L942.01 567.277C933.02 571.574 924.658 577.621 916.923 585.404L918.342 586.814ZM942.863 569.086C952.099 564.787 960.558 562.518 968.253 562.229L968.178 560.231C960.149 560.531 951.426 562.895 942.019 567.273L942.863 569.086Z" fill="#625564"/>
</g>
<defs>
<filter id="filter0_i" x="828.588" y="201.923" width="365.818" height="533.379" filterUnits="userSpaceOnUse" color-interpolation-filters="sRGB">
<feFlood flood-opacity="0" result="BackgroundImageFix"/>
<feBlend mode="normal" in="SourceGraphic" in2="BackgroundImageFix" result="shape"/>
<feColorMatrix in="SourceAlpha" type="matrix" values="0 0 0 0 0 0 0 0 0 0 0 0 0 0 0 0 0 0 127 0" result="hardAlpha"/>
<feOffset dy="4"/>
<feGaussianBlur stdDeviation="2"/>
<feComposite in2="hardAlpha" operator="arithmetic" k2="-1" k3="1"/>
<feColorMatrix type="matrix" values="0 0 0 0 0 0 0 0 0 0 0 0 0 0 0 0 0 0 0.25 0"/>
<feBlend mode="normal" in2="shape" result="effect1_innerShadow"/>
</filter>
</defs>
</svg>
