<svg width="268" height="364" viewBox="0 0 268 364" fill="none" xmlns="http://www.w3.org/2000/svg">
<g style="mix-blend-mode:multiply" filter="url(#filter0_d)">
<ellipse cx="134" cy="125.5" rx="130" ry="125.5" fill="#625564"/>
</g>
<g style="mix-blend-mode:screen">
<g filter="url(#filter1_i)">
<path d="M142.234 130.504C148.68 132.848 154.832 135.045 160.691 137.096C166.551 139.146 171.678 141.637 176.072 144.566C180.467 147.496 183.982 151.012 186.619 155.113C189.256 158.922 190.574 163.756 190.574 169.615C190.574 176.646 188.963 183.238 185.74 189.391C182.811 195.543 178.416 200.963 172.557 205.65C166.697 210.338 159.52 214 151.023 216.637C142.82 219.566 133.592 221.031 123.338 221.031C111.912 221.031 102.684 219.859 95.6523 217.516C88.6211 215.465 83.2012 212.975 79.3926 210.045C75.584 207.115 73.0938 204.186 71.9219 201.256C70.75 198.326 70.1641 195.982 70.1641 194.225C70.1641 190.709 70.8965 186.9 72.3613 182.799C73.8262 178.404 76.6094 173.717 80.7109 168.736C82.4688 166.686 84.373 164.781 86.4238 163.023C90.5254 159.508 94.627 157.311 98.7285 156.432C98.1426 163.17 98.875 168.736 100.926 173.131C103.27 177.232 106.199 180.455 109.715 182.799C113.523 185.143 117.625 186.754 122.02 187.633C126.707 188.512 131.102 188.951 135.203 188.951C139.305 188.951 143.406 188.365 147.508 187.193C151.902 186.021 155.857 184.557 159.373 182.799C162.889 180.748 165.672 178.551 167.723 176.207C170.066 173.57 171.238 170.787 171.238 167.857C171.238 164.635 169.92 161.998 167.283 159.947C164.646 157.896 161.277 156.285 157.176 155.113C153.367 153.648 149.119 152.623 144.432 152.037C140.037 151.158 135.789 150.279 131.688 149.4C127.586 148.521 122.02 147.35 114.988 145.885C108.25 144.127 101.512 141.49 94.7734 137.975C88.3281 134.459 82.6152 129.771 77.6348 123.912C72.9473 118.053 70.6035 110.289 70.6035 100.621C70.6035 89.4883 73.3867 79.8203 78.9531 71.6172C84.8125 63.1211 91.8438 56.0898 100.047 50.5234C108.543 44.6641 117.479 40.2695 126.854 37.3398C136.229 34.4102 144.578 32.9453 151.902 32.9453C155.711 32.9453 159.812 33.5312 164.207 34.7031C168.602 35.582 172.703 37.3398 176.512 39.9766C180.32 42.3203 183.396 45.543 185.74 49.6445C188.377 53.7461 189.695 59.0195 189.695 65.4648C189.695 71.9102 189.109 77.1836 187.938 81.2852C187.059 85.0938 185.594 88.1699 183.543 90.5137C181.785 92.5645 179.588 93.8828 176.951 94.4688C174.314 95.0547 171.238 95.3477 167.723 95.3477C165.379 95.3477 163.182 95.0547 161.131 94.4688C159.373 93.8828 157.469 93.2969 155.418 92.7109C153.367 92.125 151.463 91.0996 149.705 89.6348C152.635 86.1191 154.832 82.75 156.297 79.5273C158.055 76.3047 158.934 72.3496 158.934 67.6621C158.934 63.5605 157.762 59.8984 155.418 56.6758C153.367 53.4531 149.852 51.8418 144.871 51.8418C139.598 51.8418 134.471 52.8672 129.49 54.918C124.803 56.9688 120.555 59.752 116.746 63.2676C113.23 66.7832 110.301 70.8848 107.957 75.5723C105.906 79.9668 104.881 84.8008 104.881 90.0742C104.881 97.9844 107.811 105.455 113.67 112.486C119.822 119.518 129.344 125.523 142.234 130.504Z" fill="#71368D" fill-opacity="0.99"/>
</g>
<path d="M142.234 130.504L141.874 131.437L141.883 131.44L141.893 131.444L142.234 130.504ZM186.619 155.113L185.778 155.654L185.787 155.668L185.797 155.682L186.619 155.113ZM185.74 189.391L184.854 188.927L184.846 188.943L184.837 188.961L185.74 189.391ZM172.557 205.65L173.181 206.431L172.557 205.65ZM151.023 216.637L150.727 215.682L150.707 215.688L150.687 215.695L151.023 216.637ZM95.6523 217.516L95.9686 216.567L95.9506 216.561L95.9323 216.556L95.6523 217.516ZM72.3613 182.799L73.3031 183.135L73.3066 183.125L73.31 183.115L72.3613 182.799ZM80.7109 168.736L79.9517 168.086L79.9453 168.093L79.939 168.101L80.7109 168.736ZM98.7285 156.432L99.7248 156.518L99.842 155.17L98.519 155.454L98.7285 156.432ZM100.926 173.131L100.02 173.554L100.037 173.591L100.058 173.627L100.926 173.131ZM109.715 182.799L109.16 183.631L109.175 183.641L109.191 183.65L109.715 182.799ZM122.02 187.633L121.823 188.613L121.835 188.616L122.02 187.633ZM147.508 187.193L147.25 186.227L147.242 186.229L147.233 186.232L147.508 187.193ZM159.373 182.799L159.82 183.693L159.849 183.679L159.877 183.663L159.373 182.799ZM167.723 176.207L166.975 175.543L166.97 175.549L167.723 176.207ZM157.176 155.113L156.817 156.047L156.858 156.063L156.901 156.075L157.176 155.113ZM144.432 152.037L144.236 153.018L144.271 153.025L144.308 153.029L144.432 152.037ZM114.988 145.885L114.736 146.852L114.76 146.859L114.784 146.864L114.988 145.885ZM94.7734 137.975L94.2946 138.853L94.3027 138.857L94.3109 138.861L94.7734 137.975ZM77.6348 123.912L76.8539 124.537L76.8632 124.548L76.8728 124.56L77.6348 123.912ZM78.9531 71.6172L78.1299 71.0494L78.1256 71.0557L78.9531 71.6172ZM100.047 50.5234L100.608 51.3509L100.615 51.3467L100.047 50.5234ZM164.207 34.7031L163.949 35.6694L163.98 35.6775L164.011 35.6837L164.207 34.7031ZM176.512 39.9766L175.943 40.7988L175.965 40.8141L175.988 40.8282L176.512 39.9766ZM185.74 49.6445L184.872 50.1407L184.885 50.1633L184.899 50.1853L185.74 49.6445ZM187.938 81.2852L186.976 81.0104L186.969 81.0352L186.963 81.0603L187.938 81.2852ZM183.543 90.5137L182.79 89.8551L182.784 89.8629L183.543 90.5137ZM161.131 94.4688L160.815 95.4174L160.835 95.4243L160.856 95.4303L161.131 94.4688ZM149.705 89.6348L148.937 88.9946L148.297 89.7628L149.065 90.403L149.705 89.6348ZM156.297 79.5273L155.419 79.0485L155.402 79.0804L155.387 79.1135L156.297 79.5273ZM155.418 56.6758L154.574 57.2127L154.591 57.2388L154.609 57.264L155.418 56.6758ZM129.49 54.918L129.109 53.9933L129.099 53.9974L129.089 54.0018L129.49 54.918ZM116.746 63.2676L116.068 62.5328L116.053 62.5463L116.039 62.5605L116.746 63.2676ZM107.957 75.5723L107.063 75.1251L107.057 75.1371L107.051 75.1494L107.957 75.5723ZM113.67 112.486L112.902 113.127L112.909 113.136L112.917 113.145L113.67 112.486ZM141.893 131.444C148.341 133.789 154.498 135.987 160.361 138.04L161.022 136.152C155.167 134.103 149.018 131.907 142.576 129.564L141.893 131.444ZM160.361 138.04C166.155 140.067 171.204 142.523 175.518 145.398L176.627 143.734C172.152 140.751 166.947 138.226 161.022 136.152L160.361 138.04ZM175.518 145.398C179.807 148.258 183.222 151.678 185.778 155.654L187.46 154.573C184.743 150.346 181.126 146.734 176.627 143.734L175.518 145.398ZM185.797 155.682C188.291 159.284 189.574 163.905 189.574 169.615H191.574C191.574 163.606 190.221 158.559 187.441 154.544L185.797 155.682ZM189.574 169.615C189.574 176.487 188.001 182.919 184.854 188.927L186.626 189.855C189.925 183.557 191.574 176.806 191.574 169.615H189.574ZM184.837 188.961C181.979 194.963 177.685 200.267 171.932 204.87L173.181 206.431C179.147 201.659 183.642 196.123 186.643 189.821L184.837 188.961ZM171.932 204.87C166.186 209.466 159.125 213.075 150.727 215.682L151.32 217.592C159.914 214.925 167.208 211.21 173.181 206.431L171.932 204.87ZM150.687 215.695C142.609 218.58 133.497 220.031 123.338 220.031V222.031C133.687 222.031 143.031 220.553 151.36 217.578L150.687 215.695ZM123.338 220.031C111.968 220.031 102.858 218.864 95.9686 216.567L95.3361 218.464C102.509 220.855 111.856 222.031 123.338 222.031V220.031ZM95.9323 216.556C88.9643 214.523 83.6747 212.077 80.0023 209.252L78.7829 210.838C82.7276 213.872 88.2779 216.406 95.3723 218.476L95.9323 216.556ZM80.0023 209.252C76.2673 206.379 73.9296 203.583 72.8504 200.884L70.9934 201.627C72.2579 204.789 74.9007 207.851 78.7829 210.838L80.0023 209.252ZM72.8504 200.884C71.6942 197.994 71.1641 195.791 71.1641 194.225H69.1641C69.1641 196.173 69.8058 198.658 70.9934 201.627L72.8504 200.884ZM71.1641 194.225C71.1641 190.847 71.8679 187.154 73.3031 183.135L71.4196 182.462C69.925 186.647 69.1641 190.571 69.1641 194.225H71.1641ZM73.31 183.115C74.724 178.873 77.4309 174.292 81.4829 169.372L79.939 168.101C75.7878 173.141 72.9283 177.936 71.4126 182.483L73.31 183.115ZM81.4702 169.387C83.1947 167.375 85.0627 165.507 87.0746 163.783L85.773 162.264C83.6834 164.055 81.7428 165.996 79.9517 168.086L81.4702 169.387ZM87.0746 163.783C91.0851 160.345 95.0398 158.245 98.938 157.409L98.519 155.454C94.2142 156.376 89.9657 158.67 85.773 162.264L87.0746 163.783ZM97.7323 156.345C97.1368 163.192 97.871 168.95 100.02 173.554L101.832 172.708C99.879 168.523 99.1483 163.147 99.7248 156.518L97.7323 156.345ZM100.058 173.627C102.469 177.847 105.501 181.191 109.16 183.631L110.27 181.967C106.898 179.719 104.07 176.618 101.794 172.635L100.058 173.627ZM109.191 183.65C113.1 186.056 117.313 187.711 121.823 188.613L122.216 186.652C117.937 185.796 113.946 184.229 110.239 181.947L109.191 183.65ZM121.835 188.616C126.574 189.504 131.031 189.951 135.203 189.951V187.951C131.172 187.951 126.84 187.519 122.204 186.65L121.835 188.616ZM135.203 189.951C139.401 189.951 143.595 189.351 147.783 188.155L147.233 186.232C143.217 187.379 139.208 187.951 135.203 187.951V189.951ZM147.765 188.16C152.216 186.973 156.235 185.486 159.82 183.693L158.926 181.904C155.479 183.628 151.589 185.07 147.25 186.227L147.765 188.16ZM159.877 183.663C163.459 181.573 166.335 179.311 168.475 176.866L166.97 175.549C165.009 177.79 162.318 179.923 158.869 181.935L159.877 183.663ZM168.47 176.871C170.942 174.091 172.238 171.08 172.238 167.857H170.238C170.238 170.494 169.191 173.05 166.975 175.543L168.47 176.871ZM172.238 167.857C172.238 164.313 170.767 161.39 167.897 159.158L166.669 160.737C169.073 162.606 170.238 164.956 170.238 167.857H172.238ZM167.897 159.158C165.136 157.01 161.642 155.349 157.451 154.152L156.901 156.075C160.912 157.221 164.157 158.783 166.669 160.737L167.897 159.158ZM157.535 154.18C153.64 152.682 149.311 151.639 144.556 151.045L144.308 153.029C148.927 153.607 153.095 154.615 156.817 156.047L157.535 154.18ZM144.628 151.057C140.237 150.178 135.994 149.3 131.897 148.423L131.478 150.378C135.584 151.258 139.837 152.138 144.236 153.018L144.628 151.057ZM131.897 148.423C127.793 147.543 122.224 146.371 115.192 144.906L114.784 146.864C121.815 148.328 127.379 149.5 131.478 150.378L131.897 148.423ZM115.241 144.917C108.582 143.18 101.914 140.572 95.236 137.088L94.3109 138.861C101.11 142.409 107.918 145.074 114.736 146.852L115.241 144.917ZM95.2523 137.097C88.9197 133.643 83.3016 129.035 78.3967 123.264L76.8728 124.56C81.9289 130.508 87.7365 135.275 94.2946 138.853L95.2523 137.097ZM78.4156 123.287C73.9065 117.651 71.6035 110.128 71.6035 100.621H69.6035C69.6035 110.45 71.988 118.454 76.8539 124.537L78.4156 123.287ZM71.6035 100.621C71.6035 89.663 74.3402 80.1962 79.7806 72.1787L78.1256 71.0557C72.4333 79.4444 69.6035 89.3136 69.6035 100.621H71.6035ZM79.7763 72.1849C85.5683 63.7866 92.512 56.8449 100.608 51.3509L99.4854 49.696C91.1755 55.3348 84.0567 62.4556 78.1299 71.0495L79.7763 72.1849ZM100.615 51.3467C109.032 45.5414 117.877 41.1926 127.152 38.2943L126.555 36.3854C117.08 39.3465 108.054 43.7867 99.4791 49.7002L100.615 51.3467ZM127.152 38.2943C136.461 35.3852 144.707 33.9453 151.902 33.9453V31.9453C144.449 31.9453 135.996 33.4351 126.555 36.3854L127.152 38.2943ZM151.902 33.9453C155.609 33.9453 159.623 34.5157 163.949 35.6694L164.465 33.7369C160.002 32.5468 155.813 31.9453 151.902 31.9453V33.9453ZM164.011 35.6837C168.267 36.5349 172.242 38.2371 175.943 40.7988L177.081 39.1544C173.164 36.4426 168.936 34.6291 164.403 33.7225L164.011 35.6837ZM175.988 40.8282C179.645 43.0792 182.607 46.1761 184.872 50.1407L186.608 49.1484C184.186 44.9098 180.995 41.5614 177.036 39.1249L175.988 40.8282ZM184.899 50.1853C187.404 54.0813 188.695 59.1508 188.695 65.4648H190.695C190.695 58.8882 189.35 53.4109 186.581 49.1038L184.899 50.1853ZM188.695 65.4648C188.695 71.8595 188.113 77.0313 186.976 81.0104L188.899 81.5599C190.106 77.3358 190.695 71.9608 190.695 65.4648H188.695ZM186.963 81.0603C186.112 84.7485 184.708 87.6632 182.79 89.8552L184.296 91.1722C186.479 88.6767 188.005 85.439 188.912 81.51L186.963 81.0603ZM182.784 89.8629C181.167 91.7494 179.16 92.9536 176.734 93.4926L177.168 95.4449C180.016 94.8121 182.404 93.3795 184.302 91.1645L182.784 89.8629ZM176.734 93.4926C174.186 94.0588 171.186 94.3477 167.723 94.3477V96.3477C171.291 96.3477 174.443 96.0506 177.168 95.4449L176.734 93.4926ZM167.723 94.3477C165.463 94.3477 163.359 94.0653 161.406 93.5072L160.856 95.4303C163.005 96.0441 165.295 96.3477 167.723 96.3477V94.3477ZM161.447 93.5201C159.674 92.9289 157.755 92.3388 155.693 91.7494L155.143 93.6725C157.182 94.255 159.072 94.8367 160.815 95.4174L161.447 93.5201ZM155.693 91.7494C153.785 91.2045 152.004 90.2488 150.345 88.8665L149.065 90.403C150.922 91.9504 152.949 93.0455 155.143 93.6725L155.693 91.7494ZM150.473 90.275C153.445 86.7095 155.696 83.265 157.207 79.9411L155.387 79.1135C153.968 82.235 151.825 85.5288 148.937 88.9946L150.473 90.275ZM157.175 80.0062C159.032 76.6015 159.934 72.4717 159.934 67.6621H157.934C157.934 72.2275 157.077 76.0079 155.419 79.0485L157.175 80.0062ZM159.934 67.6621C159.934 63.3558 158.699 59.4865 156.227 56.0876L154.609 57.264C156.825 60.3104 157.934 63.7653 157.934 67.6621H159.934ZM156.262 56.1389C153.972 52.5412 150.076 50.8418 144.871 50.8418V52.8418C149.627 52.8418 152.762 54.365 154.574 57.2127L156.262 56.1389ZM144.871 50.8418C139.464 50.8418 134.208 51.8939 129.109 53.9933L129.871 55.8426C134.733 53.8405 139.731 52.8418 144.871 52.8418V50.8418ZM129.089 54.0018C124.299 56.0978 119.957 58.9427 116.068 62.5328L117.424 64.0024C121.152 60.5612 125.307 57.8397 129.891 55.8341L129.089 54.0018ZM116.039 62.5605C112.443 66.1561 109.452 70.3466 107.063 75.1251L108.851 76.0195C111.15 71.4229 114.018 67.4103 117.453 63.9747L116.039 62.5605ZM107.051 75.1494C104.933 79.6876 103.881 84.6676 103.881 90.0742H105.881C105.881 84.934 106.879 80.246 108.863 75.9952L107.051 75.1494ZM103.881 90.0742C103.881 98.2543 106.917 105.945 112.902 113.127L114.438 111.846C108.704 104.965 105.881 97.7144 105.881 90.0742H103.881ZM112.917 113.145C119.215 120.342 128.899 126.424 141.874 131.437L142.595 129.571C129.788 124.623 120.429 118.693 114.422 111.828L112.917 113.145Z" fill="#6B2828"/>
</g>
<defs>
<filter id="filter0_d" x="0" y="0" width="268" height="259" filterUnits="userSpaceOnUse" color-interpolation-filters="sRGB">
<feFlood flood-opacity="0" result="BackgroundImageFix"/>
<feColorMatrix in="SourceAlpha" type="matrix" values="0 0 0 0 0 0 0 0 0 0 0 0 0 0 0 0 0 0 127 0"/>
<feOffset dy="4"/>
<feGaussianBlur stdDeviation="2"/>
<feColorMatrix type="matrix" values="0 0 0 0 0 0 0 0 0 0 0 0 0 0 0 0 0 0 0.25 0"/>
<feBlend mode="normal" in2="BackgroundImageFix" result="effect1_dropShadow"/>
<feBlend mode="normal" in="SourceGraphic" in2="effect1_dropShadow" result="shape"/>
</filter>
<filter id="filter1_i" x="69.1641" y="31.9453" width="122.41" height="194.086" filterUnits="userSpaceOnUse" color-interpolation-filters="sRGB">
<feFlood flood-opacity="0" result="BackgroundImageFix"/>
<feBlend mode="normal" in="SourceGraphic" in2="BackgroundImageFix" result="shape"/>
<feColorMatrix in="SourceAlpha" type="matrix" values="0 0 0 0 0 0 0 0 0 0 0 0 0 0 0 0 0 0 127 0" result="hardAlpha"/>
<feOffset dy="4"/>
<feGaussianBlur stdDeviation="2"/>
<feComposite in2="hardAlpha" operator="arithmetic" k2="-1" k3="1"/>
<feColorMatrix type="matrix" values="0 0 0 0 0 0 0 0 0 0 0 0 0 0 0 0 0 0 0.25 0"/>
<feBlend mode="normal" in2="shape" result="effect1_innerShadow"/>
</filter>
</defs>
</svg>
